STARTFONT 2.3
FONT -FontForge-Righteous-Book-R-Normal--28-280-72-72-P-151-ISO10646-1
SIZE 28 72 72  2
FONTBOUNDINGBOX 35 35 -4 -7
COMMENT "Generated by fontforge, http://fontforge.sourceforge.net"
COMMENT "Copyright (c) 2011 by Brian J. Bonislawsky DBA Astigmatic (AOETI) (astigma@astigmatic.com), with ReservedFont Name "Righteous""
STARTPROPERTIES 40
FOUNDRY "FontForge"
FAMILY_NAME "Righteous"
WEIGHT_NAME "Book"
SLANT "R"
SETWIDTH_NAME "Normal"
ADD_STYLE_NAME ""
PIXEL_SIZE 28
POINT_SIZE 280
RESOLUTION_X 72
RESOLUTION_Y 72
SPACING "P"
AVERAGE_WIDTH 151
CHARSET_REGISTRY "ISO10646"
CHARSET_ENCODING "1"
FONTNAME_REGISTRY ""
CHARSET_COLLECTIONS "ISO8859-2 ISO8859-9 ISO8859-4 ISO10646-1"
BITS_PER_PIXEL 2
FONT_NAME "Righteous-Regular"
FACE_NAME "Righteous"
COPYRIGHT "Copyright (c) 2011 by Brian J. Bonislawsky DBA Astigmatic (AOETI) (astigma@astigmatic.com), with ReservedFont Name "Righteous""
FONT_VERSION "1.000"
FONT_ASCENT 22
FONT_DESCENT 6
UNDERLINE_POSITION -4
UNDERLINE_THICKNESS 1
X_HEIGHT 14
CAP_HEIGHT 19
RAW_ASCENT 799
RAW_DESCENT 200
NORM_SPACE 8
RELATIVE_WEIGHT 40
RELATIVE_SETWIDTH 50
SUPERSCRIPT_X 0
SUPERSCRIPT_Y 13
SUPERSCRIPT_SIZE 18
SUBSCRIPT_X 0
SUBSCRIPT_Y 3
SUBSCRIPT_SIZE 18
AVG_LOWERCASE_WIDTH 150
AVG_UPPERCASE_WIDTH 178
ENDPROPERTIES
CHARS 372
STARTCHAR space
ENCODING 32
SWIDTH 279 0
DWIDTH 8 0
BBX 1 1 0 0
BITMAP
00
ENDCHAR
STARTCHAR exclam
ENCODING 33
SWIDTH 274 0
DWIDTH 8 0
BBX 5 21 1 -1
BITMAP
6A80
7FC0
7FC0
7FC0
7FC0
7FC0
7FC0
3F80
3F80
3F80
3F80
3F80
2F80
2F40
2F40
0000
1A00
3FC0
7FC0
7FC0
1E40
ENDCHAR
STARTCHAR quotedbl
ENCODING 34
SWIDTH 409 0
DWIDTH 11 0
BBX 9 7 1 13
BITMAP
6A6A80
BF6FC0
7F2FC0
7F2F80
7F1F80
7F1F80
291A40
ENDCHAR
STARTCHAR numbersign
ENCODING 35
SWIDTH 561 0
DWIDTH 16 0
BBX 14 13 1 3
BITMAP
00BE2F80
00FD3F40
06FEBF90
1FFFFFE0
1FFFFFD0
17F5FD40
07F1FC00
6BFAFE40
BFFFFF00
FFFFFF00
6FDBE500
2F8BE000
2F4BD000
ENDCHAR
STARTCHAR dollar
ENCODING 36
SWIDTH 458 0
DWIDTH 13 0
BBX 11 20 1 0
BITMAP
006400
00B800
00B800
00B800
0BFFF0
3FFFF0
7FFFF0
BD0000
BE5500
7FFFE0
2FFFF4
06AAF8
1556F8
BFFFF4
BFFFE0
AAFE40
00B800
00B800
00B800
00B800
ENDCHAR
STARTCHAR percent
ENCODING 37
SWIDTH 685 0
DWIDTH 19 0
BBX 17 21 1 -1
BITMAP
1BE0006900
3FFC00FC00
BEBD02F400
FC3E07E000
F82F0BD000
F82F1F8000
FC3E2F4000
BEBE7E0000
3FFCFC0000
1BE1F80000
0003F1A400
000BDBFF00
000FDFFF80
002F6F4BC0
007E2F0BC0
00BD2F07C0
01F82F0BC0
03F01F9FC0
07E00FFF40
0FC007FE00
0000005000
ENDCHAR
STARTCHAR ampersand
ENCODING 38
SWIDTH 485 0
DWIDTH 14 0
BBX 11 20 1 0
BITMAP
001A00
002F00
002F00
06FFFC
1FFFFC
3FEAA8
7F0000
7E0000
7F5500
2FFF80
1FFF80
3FEA80
7F0000
7E0000
3F5554
2FFFFC
0FFFFC
01BFA8
002F00
002F00
ENDCHAR
STARTCHAR quotesingle
ENCODING 39
SWIDTH 238 0
DWIDTH 7 0
BBX 5 7 1 13
BITMAP
6A40
BF40
7F00
7F00
7F00
7F00
2900
ENDCHAR
STARTCHAR parenleft
ENCODING 40
SWIDTH 351 0
DWIDTH 10 0
BBX 8 26 1 -3
BITMAP
0055
02FE
07FC
0BF4
1FF0
2FE0
3FC0
7F80
BF80
BF40
FF00
FF00
FF00
FF00
FF00
BF40
BF40
7F80
7FC0
3FD0
2FE0
0FF0
0BF8
07FC
02FE
00AA
ENDCHAR
STARTCHAR parenright
ENCODING 41
SWIDTH 351 0
DWIDTH 10 0
BBX 9 26 0 -3
BITMAP
554000
3FD000
1FF000
0BF800
03FC00
02FE00
01FF00
00FF00
00BF40
007F80
007F80
007F80
003F80
007F80
007F80
007F80
00BF40
00BF40
00FF00
01FE00
02FD00
07FC00
0BF800
1FF000
2FD000
6A8000
ENDCHAR
STARTCHAR asterisk
ENCODING 42
SWIDTH 589 0
DWIDTH 17 0
BBX 15 16 1 8
BITMAP
00154000
002FD000
002FD000
002FD040
2E2FD6D0
7FFFFFF0
BFFFFFF4
2FFFFFD0
06FFFD00
00FFF400
02FFFD00
0BFFFF40
1FF8FFC0
0BE07F40
02C01D00
00000400
ENDCHAR
STARTCHAR plus
ENCODING 43
SWIDTH 485 0
DWIDTH 14 0
BBX 12 12 1 4
BITMAP
00AA00
00FE00
00FE00
00FE00
AAFFA9
FFFFFE
FFFFFE
FFFFFE
00FE00
00FE00
00FE00
00A900
ENDCHAR
STARTCHAR comma
ENCODING 44
SWIDTH 264 0
DWIDTH 7 0
BBX 5 8 1 -4
BITMAP
1A00
7F80
BFC0
7FC0
2F80
0F40
1E00
0400
ENDCHAR
STARTCHAR hyphen
ENCODING 45
SWIDTH 528 0
DWIDTH 15 0
BBX 12 4 1 8
BITMAP
6AAAAA
7FFFFF
7FFFFF
7FFFFF
ENDCHAR
STARTCHAR period
ENCODING 46
SWIDTH 263 0
DWIDTH 7 0
BBX 5 5 1 -1
BITMAP
1A00
7F80
BFC0
7F80
2E00
ENDCHAR
STARTCHAR slash
ENCODING 47
SWIDTH 490 0
DWIDTH 14 0
BBX 12 20 1 0
BITMAP
0000A9
0002FD
0003FC
0007F8
000BF4
001FE0
002FD0
003FC0
007F80
00FF00
01FE00
02FD00
03FC00
0BF800
0FF000
1FE000
2FD000
7FC000
BF4000
FF0000
ENDCHAR
STARTCHAR zero
ENCODING 48
SWIDTH 642 0
DWIDTH 18 0
BBX 16 21 1 -1
BITMAP
001BA400
02FFFF40
0BFFFFE0
1FFEBFF4
2FE00BF8
7FC003FD
7F4001FD
BF4000FE
BF0000FE
BF0000FE
BF0000FE
BF0000FE
BF0000FE
BF4001FE
7F8002FD
3FD007FC
2FF96FF8
0FFFFFF0
03FFFFC0
00BFFE00
00014000
ENDCHAR
STARTCHAR one
ENCODING 49
SWIDTH 317 0
DWIDTH 9 0
BBX 6 20 1 0
BITMAP
AAA0
FFF0
FFF0
FFF0
5FF0
0FF0
0FF0
0FF0
0FF0
0FF0
0FF0
0FF0
0FF0
0FF0
0FF0
0FF0
0FF0
0FF0
0FF0
0FF0
ENDCHAR
STARTCHAR two
ENCODING 50
SWIDTH 570 0
DWIDTH 16 0
BBX 14 20 1 0
BITMAP
2AAA9000
3FFFFD00
3FFFFF80
3FFFFFD0
15557FE0
00001FF0
00000FF0
00001FE0
00AAFFD0
0BFFFFC0
2FFFFF40
3FFFF800
BFD50000
BF400000
BF000000
BF000000
BFFFFFD0
BFFFFFD0
BFFFFFD0
BFFFFFD0
ENDCHAR
STARTCHAR three
ENCODING 51
SWIDTH 586 0
DWIDTH 16 0
BBX 14 20 1 0
BITMAP
6AAA9000
BFFFFE00
BFFFFF80
BFFFFFD0
55556FE0
00000FF0
00000FF0
00001FF0
02AABFE0
03FFFFC0
03FFFF80
03FFFFD0
01556FE0
00000FF0
00000FF0
00001FF0
BFFFFFE0
BFFFFFC0
BFFFFF40
BFFFF800
ENDCHAR
STARTCHAR four
ENCODING 52
SWIDTH 630 0
DWIDTH 18 0
BBX 16 20 1 0
BITMAP
0AA00000
0FE00000
1FE01A90
1FD01FE0
2FD01FE0
2FD01FE0
3FC01FE0
3FC01FE0
3F801FE0
7F801FE0
7F401FE0
BF401FE0
BFEABFF9
BFFFFFFD
FFFFFFFD
FFFFFFFD
00001FE0
00001FE0
00001FE0
00001FE0
ENDCHAR
STARTCHAR five
ENCODING 53
SWIDTH 585 0
DWIDTH 16 0
BBX 15 20 1 0
BITMAP
1AAAAA90
2FFFFFE0
2FFFFFE0
2FFFFFE0
3FD55550
3FC00000
3F800000
7F955000
7FFFFD00
7FFFFF80
BFFFFFD0
6AAABFF0
00000FF4
00000BF4
00000BF4
00001FF4
BFFFFFF0
BFFFFFD0
BFFFFF40
BFFFF800
ENDCHAR
STARTCHAR six
ENCODING 54
SWIDTH 615 0
DWIDTH 17 0
BBX 16 21 1 -1
BITMAP
001AA400
00BFD000
02FF4000
07FD0000
0FF80000
1FF69400
2FFFFE40
3FFFFFD0
7FFFFFF0
BFF41FF8
BFC007FC
FF4003FC
FF4002FD
FF4002FD
BF8003FC
7FD00BF8
3FF96FF4
1FFFFFE0
07FFFF80
01BFFE00
00165000
ENDCHAR
STARTCHAR seven
ENCODING 55
SWIDTH 516 0
DWIDTH 14 0
BBX 15 20 0 0
BITMAP
6AAAAAA4
7FFFFFF0
7FFFFFE0
7FFFFFD0
15557FC0
00007F80
0000BF40
0000FF00
0001FE00
0002FD00
0003FC00
000BF800
000FF400
001FF000
002FE000
003FD000
007FC000
00BF8000
00FF4000
01FF0000
ENDCHAR
STARTCHAR eight
ENCODING 56
SWIDTH 618 0
DWIDTH 17 0
BBX 16 22 1 -1
BITMAP
00010000
007FF800
03FFFF40
0FFFFFD0
1FFABFE0
2FD01FF0
3FC00BF0
2FD00FF0
1FF42FE0
0BFFFFD0
07FFFF80
1FFFFFE0
7FE56FF4
BF8007FC
FF0002FD
FF0002FD
FF4003FD
BFD00BFC
3FFEFFF4
0FFFFFD0
02FFFE40
00155000
ENDCHAR
STARTCHAR nine
ENCODING 57
SWIDTH 616 0
DWIDTH 17 0
BBX 15 20 1 0
BITMAP
00BFF400
07FFFF40
1FFFFFD0
3FFEFFF0
7FD02FF8
BF400BFC
FF0007FC
FF0003FC
FF0007FC
BF400BFC
BFD01FFC
3FFABFF8
1FFFFFF4
07FFFFF4
00BFAFE0
00003FD0
0000BF80
0002FF00
000BFD00
002FF400
ENDCHAR
STARTCHAR colon
ENCODING 58
SWIDTH 276 0
DWIDTH 8 0
BBX 5 13 1 -1
BITMAP
0500
3F80
7FC0
7FC0
2F40
0000
0000
0000
1A00
3FC0
7FC0
7FC0
1E40
ENDCHAR
STARTCHAR semicolon
ENCODING 59
SWIDTH 276 0
DWIDTH 8 0
BBX 6 16 1 -4
BITMAP
0500
3F80
7FC0
7FC0
2F40
0000
0000
0000
1A00
3FC0
7FD0
7FC0
1FC0
0B80
1F00
0500
ENDCHAR
STARTCHAR less
ENCODING 60
SWIDTH 478 0
DWIDTH 13 0
BBX 11 16 1 3
BITMAP
000180
0007E0
001FF8
007FF4
01FFD0
07FF40
1FFD00
7FF400
FFE000
7FF800
0FFE00
03FF80
00BFF0
002FF8
000BF0
0002C0
ENDCHAR
STARTCHAR equal
ENCODING 61
SWIDTH 539 0
DWIDTH 15 0
BBX 13 10 1 5
BITMAP
2AAAAA00
7FFFFF40
7FFFFF40
7FFFFF40
00000000
00000000
7FFFFF40
7FFFFF40
7FFFFF40
2AAAAA40
ENDCHAR
STARTCHAR greater
ENCODING 62
SWIDTH 478 0
DWIDTH 13 0
BBX 12 16 1 3
BITMAP
060000
1F8000
7FE000
2FF800
0BFE00
02FF80
00BFE0
002FF8
001FFD
007FF4
01FFD0
0BFF40
2FFD00
7FF400
2FD000
0B4000
ENDCHAR
STARTCHAR question
ENCODING 63
SWIDTH 603 0
DWIDTH 17 0
BBX 15 21 1 -1
BITMAP
AAAAA400
FFFFFF40
FFFFFFE0
FFFFFFF4
55555FF8
000007FC
000003FC
000007F8
0002BFF4
001FFFF0
007FFFD0
00FFFE00
01FF4000
01FD0000
02FD0000
00000000
00640000
02FD0000
03FE0000
02FE0000
00B80000
ENDCHAR
STARTCHAR at
ENCODING 64
SWIDTH 629 0
DWIDTH 18 0
BBX 16 16 1 -1
BITMAP
006FF900
02FFFF80
0FFAAFE0
2F8007F8
7E0ABDFC
BD3FFD7D
BCBEFD3E
F8B87D3E
F8BDBD3E
BC7FFFFD
7E1FFFFC
3F410000
1FE40000
07FFE000
00BFF000
00055000
ENDCHAR
STARTCHAR A
ENCODING 65
SWIDTH 673 0
DWIDTH 19 0
BBX 17 20 1 0
BITMAP
0006A40000
00BFFF4000
02FFFFE000
0BFFFFF800
1FFD5FFD00
3FE002FE00
7FC000FF00
7F8000BF40
7F8000BF40
7F8000BF40
7F8000BF40
7F8000BF40
7FEAAAFF40
7FFFFFFF40
7FFFFFFF40
7FFFFFFF40
7F8000BF40
7F8000BF40
7F8000BF40
7F8000BF40
ENDCHAR
STARTCHAR B
ENCODING 66
SWIDTH 666 0
DWIDTH 19 0
BBX 17 20 1 0
BITMAP
2AAAAA4000
7FFFFFE000
7FFFFFFC00
7FFFFFFE00
7F9556FF40
7F8000BF40
7F80007F40
7F8000FF40
7FEAABFF00
7FFFFFFD00
7FFFFFF800
7FFFFFFE00
7F9555FF40
7F8000BF40
7F8000BF40
7F8001FF40
7FFFFFFF00
7FFFFFFD00
7FFFFFF400
7FFFFF9000
ENDCHAR
STARTCHAR C
ENCODING 67
SWIDTH 640 0
DWIDTH 18 0
BBX 18 21 0 -1
BITMAP
0001AE9400
001FFFFE40
00BFFFFFD0
02FFFFFFC0
07FF906F40
0FF8000600
1FF0000000
3FD0000000
3FC0000000
7F80000000
7F80000000
3F80000000
3FC0000000
2FE0000000
1FF4000000
0BFE000B00
03FFEABF80
01FFFFFFD0
002FFFFF80
0006FFF900
0000154000
ENDCHAR
STARTCHAR D
ENCODING 68
SWIDTH 653 0
DWIDTH 18 0
BBX 17 20 1 0
BITMAP
2AAA500000
7FFFF90000
7FFFFF8000
7FFFFFE000
7FD5BFF800
7F800BFD00
7F8002FE00
7F8000FF00
7F8000BF40
7F80007F40
7F80007F80
7F8000BF40
7F8000FF40
7F8001FF00
7F8007FE00
7F806FFC00
7FFFFFF400
7FFFFFD000
7FFFFE0000
7FFFA40000
ENDCHAR
STARTCHAR E
ENCODING 69
SWIDTH 578 0
DWIDTH 16 0
BBX 15 20 1 0
BITMAP
2AAAAAA0
7FFFFFF4
7FFFFFF4
7FFFFFF4
7F955550
7F800000
7F800000
7F800000
7FEAA800
7FFFFD00
7FFFFD00
7FFFFD00
7F955400
7F800000
7F800000
7F800000
7FFFFFF4
7FFFFFF4
7FFFFFF4
7FFFFFF4
ENDCHAR
STARTCHAR F
ENCODING 70
SWIDTH 562 0
DWIDTH 16 0
BBX 15 20 1 0
BITMAP
2AAAAAA4
7FFFFFF8
7FFFFFF8
7FFFFFF8
7F955554
7F800000
7F800000
7F800000
7FEAA400
7FFFF800
7FFFF800
7FFFF800
7F955000
7F800000
7F800000
7F800000
7F800000
7F800000
7F800000
7F800000
ENDCHAR
STARTCHAR G
ENCODING 71
SWIDTH 665 0
DWIDTH 19 0
BBX 18 21 0 -1
BITMAP
0001AA9000
001BFFFE00
00BFFFFFD0
02FFFFFFC0
07FF906F40
0FFC000600
1FF0000000
3FD0000000
3FC0000000
7F80000000
7F80001A90
3F80001FD0
3FC0001FD0
2FE0001FD0
1FF4001FD0
0BFE001FD0
03FFEABFD0
01FFFFFFD0
002FFFFF80
0006FFF900
0000154000
ENDCHAR
STARTCHAR H
ENCODING 72
SWIDTH 689 0
DWIDTH 19 0
BBX 17 20 1 0
BITMAP
2A40006A40
7F80007F80
7F80007F80
7F80007F80
7F80007F80
7F80007F80
7F80007F80
7F80007F80
7FEAAAFF80
7FFFFFFF80
7FFFFFFF80
7FFFFFFF80
7F9555BF80
7F80007F80
7F80007F80
7F80007F80
7F80007F80
7F80007F80
7F80007F80
7F80007F80
ENDCHAR
STARTCHAR I
ENCODING 73
SWIDTH 270 0
DWIDTH 8 0
BBX 5 20 1 0
BITMAP
2A40
7F80
7F80
7F80
7F80
7F80
7F80
7F80
7F80
7F80
7F80
7F80
7F80
7F80
7F80
7F80
7F80
7F80
7F80
7F80
ENDCHAR
STARTCHAR J
ENCODING 74
SWIDTH 416 0
DWIDTH 12 0
BBX 10 20 0 0
BITMAP
000AA0
000BF0
000BF0
000BF0
000BF0
000BF0
000BF0
000BF0
000BF0
000BF0
000BF0
000BF0
000FF0
000FF0
002FE0
40BFD0
BFFF80
BFFF00
BFF800
BF9000
ENDCHAR
STARTCHAR K
ENCODING 75
SWIDTH 625 0
DWIDTH 18 0
BBX 17 20 1 0
BITMAP
2A4000AA00
7F8002FE00
7F800BFC00
7F801FF400
7F803FD000
7F80BF8000
7F81FF0000
7F87FD0000
7F8FF80000
7FAFF80000
7FFFFD0000
7FFFFF0000
7FFDFF4000
7FF87FC000
7FF03FD000
7FD01FF000
7F800FF800
7F8007FC00
7F8002FE00
7F8001FF40
ENDCHAR
STARTCHAR L
ENCODING 76
SWIDTH 562 0
DWIDTH 16 0
BBX 15 20 1 0
BITMAP
2A400000
7F800000
7F800000
7F800000
7F800000
7F800000
7F800000
7F800000
7F800000
7F800000
7F800000
7F800000
7F800000
7F800000
7F800000
7F800000
7FFFFFF8
7FFFFFF8
7FFFFFF8
7FFFFFF8
ENDCHAR
STARTCHAR M
ENCODING 77
SWIDTH 819 0
DWIDTH 23 0
BBX 21 20 1 0
BITMAP
006E80AE4000
07FFFBFFF400
1FFFFFFFFC00
2FFFFFFFFE00
3FD1FFD1FF00
7F80BF80BF40
7F807F40BF40
7F807F40BF40
7F807F40BF40
7F807F40BF40
7F807F40BF40
7F807F40BF40
7F807F40BF40
7F807F40BF40
7F807F40BF40
7F807F40BF40
7F807F40BF40
7F807F40BF40
7F807F40BF40
7F807F40BF40
ENDCHAR
STARTCHAR N
ENCODING 78
SWIDTH 689 0
DWIDTH 19 0
BBX 17 20 1 0
BITMAP
2A80006A40
7FE0007F80
7FF4007F80
7FF8007F80
7FFD007F80
7FFF007F80
7FFF807F80
7FBFD07F80
7F9FE07F80
7F8BF47F80
7F87FC7F80
7F82FE7F80
7F80FFBF80
7F80BFFF80
7F803FFF80
7F801FFF80
7F800BFF80
7F8007FF80
7F8002FF80
7F8000FF80
ENDCHAR
STARTCHAR O
ENCODING 79
SWIDTH 777 0
DWIDTH 22 0
BBX 21 21 0 -1
BITMAP
0001AA900000
001BFFFE0000
00BFFFFFD000
02FFFFFFF400
07FF906FFD00
0FF80007FE00
1FF00001FF40
3FD00000BF80
3FC000007FC0
7F8000003FC0
7F8000003FC0
3F8000003FC0
3FC000007F80
2FE00000BF40
1FF40002FF00
0BFE000BFE00
03FFEABFF800
01FFFFFFF000
002FFFFF8000
0006FFF90000
000015400000
ENDCHAR
STARTCHAR P
ENCODING 80
SWIDTH 642 0
DWIDTH 18 0
BBX 17 20 1 0
BITMAP
2AAAA40000
7FFFFF8000
7FFFFFE000
7FFFFFF800
7F955BFD00
7F8002FF00
7F8000FF40
7F8000BF40
7F80007F40
7F8000BF40
7F8001FF00
7F8007FE00
7FEAFFFD00
7FFFFFF400
7FFFFFD000
7FFFFE0000
7F80000000
7F80000000
7F80000000
7F80000000
ENDCHAR
STARTCHAR Q
ENCODING 81
SWIDTH 777 0
DWIDTH 22 0
BBX 21 24 0 -4
BITMAP
0001AA900000
001BFFFE0000
00BFFFFFD000
02FFFFFFF400
07FF906FFD00
0FF80007FE00
1FF00001FF40
3FD00000BF80
3FC000007FC0
7F8000003FC0
7F8000003FC0
3F8000003FC0
3FC000007F80
2FE00000BF40
1FF40002FF00
0BFE000BFE00
03FFEABFF800
01FFFFFFF000
002FFFFF8000
0006FFFE0000
000016FF0000
000000BF8000
0000003FD000
0000001FF000
ENDCHAR
STARTCHAR R
ENCODING 82
SWIDTH 651 0
DWIDTH 18 0
BBX 17 20 1 0
BITMAP
2AAAA40000
7FFFFF8000
7FFFFFE000
7FFFFFF800
7F955BFD00
7F8002FF00
7F8000FF40
7F8000BF40
7F80007F40
7F8000BF40
7F8001FF00
7F8007FE00
7FEAFFFD00
7FFFFFF400
7FFFFFD000
7FFFFFC000
7F802FE000
7F801FF000
7F800BF400
7F8007F800
ENDCHAR
STARTCHAR S
ENCODING 83
SWIDTH 610 0
DWIDTH 17 0
BBX 17 20 0 0
BITMAP
005AAAA900
02FFFFFE00
0FFFFFFE00
2FFFFFFE00
3FE5555500
7F80000000
7F80000000
7FC0000000
3FFAAA4000
1FFFFFF400
07FFFFFC00
01BFFFFE00
000156FF00
000000BF40
000000BF40
000001FF40
1FFFFFFE00
1FFFFFFD00
1FFFFFF400
1FFFFF8000
ENDCHAR
STARTCHAR T
ENCODING 84
SWIDTH 578 0
DWIDTH 16 0
BBX 16 20 0 0
BITMAP
6AAAAAAA
BFFFFFFF
BFFFFFFF
BFFFFFFF
555FF555
000FF000
000FF000
000FF000
000FF000
000FF000
000FF000
000FF000
000FF000
000FF000
000FF000
000FF000
000FF000
000FF000
000FF000
000FF000
ENDCHAR
STARTCHAR U
ENCODING 85
SWIDTH 673 0
DWIDTH 19 0
BBX 17 20 1 0
BITMAP
6A40006A40
7F8000BF40
7F8000BF40
7F8000BF40
7F8000BF40
7F8000BF40
7F8000BF40
7F8000BF40
7F8000BF40
7F8000BF40
7F8000BF40
7F8000BF40
7F8000BF40
7F8000FF00
3FD002FF00
2FF80BFE00
0FFFFFFC00
07FFFFF400
01FFFF8000
001BF90000
ENDCHAR
STARTCHAR V
ENCODING 86
SWIDTH 602 0
DWIDTH 17 0
BBX 17 20 0 0
BITMAP
AA40006A40
BF8000FF40
7FC001FF00
3FD002FE00
2FE003FD00
1FF007FC00
0FF40BF800
0BF80BF400
07FC0FF000
03FD1FE000
02FD2FD000
01FE3FC000
00FF7F8000
00BFFF4000
007FFF0000
003FFF0000
002FFE0000
001FFD0000
000FFC0000
000BF80000
ENDCHAR
STARTCHAR W
ENCODING 87
SWIDTH 819 0
DWIDTH 23 0
BBX 21 21 1 -1
BITMAP
6A406A406A40
7F807F40BF40
7F807F40BF40
7F807F40BF40
7F807F40BF40
7F807F40BF40
7F807F40BF40
7F807F40BF40
7F807F40BF40
7F807F40BF40
7F807F40BF40
7F807F40BF40
7F807F40BF40
7F807F40BF40
7F80BF40BF40
7FC0FF80FF00
3FFBFFFBFF00
1FFFFFFFFD00
0BFFFFFFF800
01FFD1FFD000
000500140000
ENDCHAR
STARTCHAR X
ENCODING 88
SWIDTH 608 0
DWIDTH 17 0
BBX 17 20 0 0
BITMAP
6A8000AA80
7FD001FF40
2FF003FE00
0FF80BFC00
07FD1FF800
03FE2FF000
01FFBFD000
00BFFF8000
003FFF0000
001FFD0000
001FFD0000
002FFE0000
007FFF4000
00FFFFC000
02FF3FE000
07FD1FF400
0BF80BFC00
1FF407FE00
3FE002FF00
BFC000FF80
ENDCHAR
STARTCHAR Y
ENCODING 89
SWIDTH 620 0
DWIDTH 17 0
BBX 17 20 0 0
BITMAP
2A40006A40
7F80007F80
7F80007F80
7F80007F80
7F80007F80
7F80007F80
3F80007F40
3FC000BF40
2FE001FF40
1FF807FE00
0FFFBFFD00
07FFFFF400
01FFFFD000
001BFE0000
0007F80000
0007F80000
0007F80000
0007F80000
0007F80000
0007F80000
ENDCHAR
STARTCHAR Z
ENCODING 90
SWIDTH 586 0
DWIDTH 16 0
BBX 16 20 0 0
BITMAP
6AAAAAA9
7FFFFFFD
7FFFFFF8
7FFFFFF4
15557FE0
0000BFC0
0000FF80
0002FF00
0007FE00
000BFC00
001FF400
002FF000
007FD000
00FFC000
01FF4000
03FE0000
07FFFFFE
0FFFFFFE
2FFFFFFE
3FFFFFFE
ENDCHAR
STARTCHAR bracketleft
ENCODING 91
SWIDTH 380 0
DWIDTH 11 0
BBX 9 26 1 -3
BITMAP
155540
7FFF80
7FFF80
7FFF80
7FEA40
7F8000
7F8000
7F8000
7F8000
7F8000
7F8000
7F8000
7F8000
7F8000
7F8000
7F8000
7F8000
7F8000
7F8000
7F8000
7F8000
7F8000
7FFF80
7FFF80
7FFF80
6AAA80
ENDCHAR
STARTCHAR backslash
ENCODING 92
SWIDTH 490 0
DWIDTH 14 0
BBX 12 20 1 0
BITMAP
AA0000
BF4000
7F8000
3FC000
2FE000
0FF000
0BF400
07F800
03FD00
01FE00
00FF00
00BF40
007F80
002FD0
001FE0
000FF0
000BF4
0003FC
0002FD
0001FE
ENDCHAR
STARTCHAR bracketright
ENCODING 93
SWIDTH 380 0
DWIDTH 11 0
BBX 8 26 1 -3
BITMAP
5555
FFFF
FFFF
FFFF
6AFF
00FF
00FF
00FF
00FF
00FF
00FF
00FF
00FF
00FF
00FF
00FF
00FF
00FF
00FF
00FF
00FF
00FF
FFFF
FFFF
FFFF
AAAA
ENDCHAR
STARTCHAR asciicircum
ENCODING 94
SWIDTH 293 0
DWIDTH 8 0
BBX 8 6 0 14
BITMAP
0140
07D0
1FF4
7FFD
BEBF
281D
ENDCHAR
STARTCHAR underscore
ENCODING 95
SWIDTH 598 0
DWIDTH 17 0
BBX 12 5 2 -7
BITMAP
155555
7FFFFF
7FFFFF
7FFFFF
6AAAAA
ENDCHAR
STARTCHAR grave
ENCODING 96
SWIDTH 225 0
DWIDTH 6 0
BBX 6 6 0 14
BITMAP
0400
2D00
7F40
BFE0
1BF0
01D0
ENDCHAR
STARTCHAR a
ENCODING 97
SWIDTH 607 0
DWIDTH 17 0
BBX 16 16 0 -1
BITMAP
006FF905
02FFFF5E
0BFFFFFE
1FFEBFFE
2FE00BFE
3FC002FE
7F8001FE
7F4001FE
7F8001FE
3FC002FE
3FE00BFE
1FFEAFFE
0BFFFFFE
02FFFF9E
007FF90A
00014000
ENDCHAR
STARTCHAR b
ENCODING 98
SWIDTH 597 0
DWIDTH 17 0
BBX 15 22 1 -1
BITMAP
55000000
FF000000
FF000000
FF000000
FF000000
FF010000
FF6FF800
FFFFFF40
FFFFFFD0
FFFABFF0
FFD01FF4
FF8007F8
FF0003FC
FF0002FC
BF0002FC
BF4007FC
7FD00FF8
3FF9BFF0
1FFFFFD0
07FFFF40
00BFF900
00054000
ENDCHAR
STARTCHAR c
ENCODING 99
SWIDTH 521 0
DWIDTH 15 0
BBX 14 16 0 -1
BITMAP
006FF900
01FFFF80
07FFFFE0
1FFEBFF0
2FE00BC0
3FC00200
7F800000
7F400000
7F400000
7F800100
3FE00780
1FFEAFE0
0BFFFFE0
02FFFF80
006FF900
00014000
ENDCHAR
STARTCHAR d
ENCODING 100
SWIDTH 606 0
DWIDTH 17 0
BBX 16 22 0 -1
BITMAP
00000055
000001FE
000001FE
000001FE
000001FE
000041FE
006FF9FE
02FFFFFE
0BFFFFFE
1FFEBFFE
2FE00BFE
3FC002FE
7F8001FE
7F4001FE
7F8001FE
3FC002FE
2FE00BFE
1FFEAFFE
0BFFFFFE
02FFFF9E
006FF90A
00014000
ENDCHAR
STARTCHAR e
ENCODING 101
SWIDTH 524 0
DWIDTH 15 0
BBX 14 16 0 -1
BITMAP
006FF900
02FFFF80
0BFFFFE0
1FFEBFE0
2FE07FC0
3FC1FF40
7F83FD00
7F4BF800
7F9FE000
3FFF8100
2FFF0780
1FFEAFE0
0BFFFFE0
02FFFF80
006FFD00
00014000
ENDCHAR
STARTCHAR f
ENCODING 102
SWIDTH 395 0
DWIDTH 11 0
BBX 12 22 0 0
BITMAP
0006BE
002FFE
00FFFE
02FFFE
07FD00
07F400
0BF400
6FFAA4
7FFFF8
7FFFF8
7FFFF8
0BF400
0BF400
0BF400
0BF400
0BF400
0BF400
0BF400
0BF400
0BF400
0BF400
0BF400
ENDCHAR
STARTCHAR g
ENCODING 103
SWIDTH 607 0
DWIDTH 17 0
BBX 16 21 0 -6
BITMAP
006FF905
02FFFF5E
0BFFFFFE
1FFEBFFE
2FE00BFE
3FC002FE
7F8001FE
7F4001FE
7F8001FE
3FC002FE
3FE00BFE
1FFEAFFE
0BFFFFFE
02FFFFFE
006FFEFD
000143FD
00001FF8
000BFFF4
000BFFD0
000BFE40
00069400
ENDCHAR
STARTCHAR h
ENCODING 104
SWIDTH 562 0
DWIDTH 16 0
BBX 14 21 1 0
BITMAP
55000000
BF000000
BF000000
BF000000
BF000000
BF000000
BF6F9000
BFFFFC00
BFFFFF00
BFFFFF80
BFD07FC0
BF402FD0
BF401FD0
BF001FE0
BF001FE0
BF001FE0
BF001FE0
BF001FE0
BF001FE0
BF001FE0
BF001FE0
ENDCHAR
STARTCHAR i
ENCODING 105
SWIDTH 235 0
DWIDTH 7 0
BBX 5 21 1 0
BITMAP
7E00
FF80
FF80
FF40
2A00
0000
6A00
BF40
BF40
BF40
BF40
BF40
BF40
BF40
BF40
BF40
BF40
BF40
BF40
BF40
BF40
ENDCHAR
STARTCHAR j
ENCODING 106
SWIDTH 237 0
DWIDTH 7 0
BBX 10 27 -4 -6
BITMAP
001F80
003FE0
003FE0
002FE0
000A80
000000
001A90
002FD0
002FD0
002FD0
002FD0
002FD0
002FD0
002FD0
002FD0
002FD0
002FD0
002FD0
002FD0
002FD0
003FC0
007F80
46FF40
FFFE00
FFF800
FFE000
A90000
ENDCHAR
STARTCHAR k
ENCODING 107
SWIDTH 539 0
DWIDTH 15 0
BBX 14 21 1 0
BITMAP
55000000
BF400000
BF400000
BF400000
BF400000
BF400000
BF401A90
BF407FD0
BF40FF40
BF42FE00
BF47F800
BF5FF000
BF7FD000
BFFFE000
BFFFF400
BFFFFC00
BFF6FD00
BFD1FF00
BF80BF80
BF403FD0
BF402FE0
ENDCHAR
STARTCHAR l
ENCODING 108
SWIDTH 235 0
DWIDTH 7 0
BBX 5 21 1 0
BITMAP
5500
BF40
BF40
BF40
BF40
BF40
BF40
BF40
BF40
BF40
BF40
BF40
BF40
BF40
BF40
BF40
BF40
BF40
BF40
BF40
BF40
ENDCHAR
STARTCHAR m
ENCODING 109
SWIDTH 762 0
DWIDTH 21 0
BBX 19 15 1 0
BITMAP
51BE42B900
BBFFDFFFD0
BFFFFFFFF0
BFFFFFFFF8
BF82FF47FC
BF41FE02FC
BF00FE02FC
BF00FE02FC
BF00FE02FC
BF00FE02FC
BF00FE02FC
BF00FE02FC
BF00FE02FC
BF00FE02FC
BF00FE02FC
ENDCHAR
STARTCHAR n
ENCODING 110
SWIDTH 562 0
DWIDTH 16 0
BBX 14 15 1 0
BITMAP
506F9000
B7FFFC00
BFFFFF00
BFFFFF80
BFD07FC0
BF402FD0
BF401FD0
BF001FE0
BF001FE0
BF001FE0
BF001FE0
BF001FE0
BF001FE0
BF001FE0
BF001FE0
ENDCHAR
STARTCHAR o
ENCODING 111
SWIDTH 579 0
DWIDTH 16 0
BBX 16 16 0 -1
BITMAP
006FF900
02FFFF80
0BFFFFE0
1FFEBFF8
2FE00BFC
3FC002FD
7F8001FD
7F4001FE
7F8001FD
3FC002FD
2FE007FC
1FFEAFF8
0BFFFFE0
02FFFF80
006FFD00
00014000
ENDCHAR
STARTCHAR p
ENCODING 112
SWIDTH 608 0
DWIDTH 17 0
BBX 16 21 1 -6
BITMAP
502FF900
B5FFFF80
BFFFFFE0
BFFEBFF4
BFE00BF8
BF8003FC
BF4001FD
BF4001FD
BF4001FD
BF8002FD
BFD00BFC
BFFABFF4
BFFFFFE0
BFFFFF80
BF6FFD00
BF414000
BF400000
BF400000
BF400000
BF400000
6A000000
ENDCHAR
STARTCHAR q
ENCODING 113
SWIDTH 607 0
DWIDTH 17 0
BBX 16 21 0 -6
BITMAP
006FF805
02FFFF5E
0BFFFFFE
1FFEBFFE
2FE00BFE
3FC002FE
7F8001FE
7F4001FE
7F8001FE
3FC002FE
2FE00BFE
1FFEAFFE
0BFFFFFE
02FFFFFE
006FF9FE
000140FE
000000FE
000000FE
000000FE
000000FE
000000A9
ENDCHAR
STARTCHAR r
ENCODING 114
SWIDTH 414 0
DWIDTH 12 0
BBX 11 15 1 0
BITMAP
501AA4
B6FFF4
BFFFF4
BFFFF4
BFE400
BF8000
BF4000
BF0000
BF0000
BF0000
BF0000
BF0000
BF0000
BF0000
BF0000
ENDCHAR
STARTCHAR s
ENCODING 115
SWIDTH 523 0
DWIDTH 15 0
BBX 13 15 1 0
BITMAP
01AAAA00
1FFFFF00
7FFFFF00
BFFFFF00
FF000000
FE000000
BFFFF800
7FFFFF00
1FFFFF80
06AABFC0
00002FC0
AAAABFC0
FFFFFF80
FFFFFE00
FFFFF800
ENDCHAR
STARTCHAR t
ENCODING 116
SWIDTH 437 0
DWIDTH 12 0
BBX 12 21 0 0
BITMAP
055000
0BF000
0BF000
0BF000
0BF000
0BF000
6FFAA9
BFFFFE
BFFFFE
BFFFFE
0BF000
0BF000
0BF000
0BF000
0BF000
0BF400
07F800
03FFA9
01FFFE
007FFE
000BFE
ENDCHAR
STARTCHAR u
ENCODING 117
SWIDTH 562 0
DWIDTH 16 0
BBX 14 16 1 -1
BITMAP
6A001A90
BF001FD0
BF001FD0
BF001FD0
BF001FD0
BF001FD0
BF001FD0
BF001FD0
BF001FD0
BF002FD0
7F807FD0
3FEAFFD0
2FFFFFD0
0BFFFAD0
01FFD0D0
00050000
ENDCHAR
STARTCHAR v
ENCODING 118
SWIDTH 532 0
DWIDTH 15 0
BBX 15 15 0 0
BITMAP
AA4006A8
BF800BF4
7FC00FF0
2FD01FE0
1FE02FD0
0FF03FC0
0BF4BF80
07F8FF40
03FDFE00
02FFFD00
00FFFC00
00BFF800
007FF400
003FF000
002FE000
ENDCHAR
STARTCHAR w
ENCODING 119
SWIDTH 756 0
DWIDTH 21 0
BBX 19 16 1 -1
BITMAP
6A00A901A8
BF01FD02FC
BF01FD02FC
BF01FD02FC
BF01FD02FC
BF01FD02FC
BF01FD02FC
BF01FD02FC
BF01FD02FC
BF01FD02FC
BF42FE03F8
7FEBFFAFF8
3FFFFFFFF0
1FFFFFFFD0
02FF87FE40
0014005000
ENDCHAR
STARTCHAR x
ENCODING 120
SWIDTH 528 0
DWIDTH 15 0
BBX 15 15 0 0
BITMAP
AA800AA4
7FD02FF0
1FF07FD0
0BF8FF80
03FFFE00
01FFFC00
007FF400
003FE000
007FF400
01FFFC00
03FFFE00
0BF8FF40
1FF07FC0
3FD02FE0
BF800FF8
ENDCHAR
STARTCHAR y
ENCODING 121
SWIDTH 562 0
DWIDTH 16 0
BBX 14 21 1 -6
BITMAP
6A001A90
BF001FD0
BF001FD0
BF001FD0
BF001FD0
BF001FD0
BF001FD0
BF001FD0
BF001FD0
BF002FD0
7F807FD0
3FEAFFD0
2FFFFFD0
0BFFFFD0
01FFBFD0
00057FC0
0046FF40
00FFFF00
00FFFC00
00FFE000
00A90000
ENDCHAR
STARTCHAR z
ENCODING 122
SWIDTH 481 0
DWIDTH 14 0
BBX 13 15 0 0
BITMAP
6AAAAA40
7FFFFF40
7FFFFE00
7FFFFC00
000BF800
000FF000
002FD000
003F8000
00BF4000
01FE0000
02FC0000
07FEAA80
0FFFFFC0
2FFFFFC0
3FFFFFC0
ENDCHAR
STARTCHAR braceleft
ENCODING 123
SWIDTH 466 0
DWIDTH 13 0
BBX 12 26 0 -3
BITMAP
000155
001FFF
007FFF
00BFFF
00BFAA
00BF00
00BF00
00BF00
00BF00
00FF00
01FF00
7FFE00
7FF800
7FF400
7FFD00
01FF00
00FF00
00BF00
00BF00
00BF00
00BF00
00BF40
00BFFF
007FFF
002FFF
0006AA
ENDCHAR
STARTCHAR bar
ENCODING 124
SWIDTH 267 0
DWIDTH 7 0
BBX 5 26 1 -3
BITMAP
1540
7F80
7F80
7F80
7F80
7F80
7F80
7F80
7F80
7F80
7F80
7F80
7F80
7F80
7F80
7F80
7F80
7F80
7F80
7F80
7F80
7F80
7F80
7F80
7F80
6A80
ENDCHAR
STARTCHAR braceright
ENCODING 125
SWIDTH 466 0
DWIDTH 13 0
BBX 12 26 1 -3
BITMAP
554000
FFF400
FFFD00
FFFE00
6AFF00
00FF00
00FF00
00FF00
00FF00
00FF00
00FF40
007FFE
002FFE
001FFE
007FFE
00BF40
00FF00
00FF00
00FF00
00FF00
00FF00
00FF00
FFFE00
FFFD00
FFF800
AA9000
ENDCHAR
STARTCHAR asciitilde
ENCODING 126
SWIDTH 451 0
DWIDTH 13 0
BBX 11 6 1 7
BITMAP
1A81B0
7FF2F4
BFFFF4
BEBFF0
7D1FD0
140100
ENDCHAR
STARTCHAR nonbreakingspace
ENCODING 160
SWIDTH 279 0
DWIDTH 8 0
BBX 1 1 0 0
BITMAP
00
ENDCHAR
STARTCHAR exclamdown
ENCODING 161
SWIDTH 274 0
DWIDTH 8 0
BBX 6 21 1 -4
BITMAP
0900
3F80
7FC0
7FC0
2F40
0000
2A40
2F40
2F80
3F80
3F80
3F80
3F80
3F80
3FC0
7FC0
7FC0
7FC0
7FC0
7FC0
7FD0
ENDCHAR
STARTCHAR cent
ENCODING 162
SWIDTH 462 0
DWIDTH 13 0
BBX 11 20 1 0
BITMAP
002900
007D00
007D00
007D00
02FF90
0FFFF4
3FEBF8
7F40E0
BD0040
FD0000
FD0000
BE0040
7F41F0
2FFFF8
0BFFF0
01BF40
007D00
007D00
007D00
007D00
ENDCHAR
STARTCHAR sterling
ENCODING 163
SWIDTH 681 0
DWIDTH 19 0
BBX 17 20 1 0
BITMAP
0006A00000
002FF00000
00FFF00000
02FFF00000
03FE500000
07F8000000
07F4000000
07F4000000
1BF9400000
BFFFD00000
BFFFD00000
BFFFD00000
6BFA800000
07F4000000
07F4002FC0
07F4007FC0
07FFFFFF80
07FFFFFF00
07FFFFFD00
07FFFFE000
ENDCHAR
STARTCHAR currency
ENCODING 164
SWIDTH 454 0
DWIDTH 13 0
BBX 11 11 1 4
BITMAP
600060
FEFEF8
BFFFF4
2F5BD0
3D02E0
3C01E0
3D02E0
2F47D0
7FFFF0
FEFEF8
2410A0
ENDCHAR
STARTCHAR yen
ENCODING 165
SWIDTH 653 0
DWIDTH 18 0
BBX 16 20 1 0
BITMAP
6A0000AA
BF4000FF
BF4000FF
BF4000FF
BF4000FF
BF4000FF
BF4000FF
BF4000FF
7FC002FE
3FF40BFD
1FFFFFF8
07FFFFE0
16FFFF94
3FFFFFFD
3FFFFFFD
3FFFFFFD
155FF554
000BF000
000BF000
000BF000
ENDCHAR
STARTCHAR brokenbar
ENCODING 166
SWIDTH 269 0
DWIDTH 8 0
BBX 5 26 1 -3
BITMAP
1540
7F80
7F80
7F80
7F80
7F80
7F80
7F80
7F80
7F80
7F80
2A80
0000
0000
1540
7F80
7F80
7F80
7F80
7F80
7F80
7F80
7F80
7F80
7F80
2A80
ENDCHAR
STARTCHAR section
ENCODING 167
SWIDTH 569 0
DWIDTH 16 0
BBX 14 20 1 0
BITMAP
01AAAA40
0BFFFF80
2FFFFF80
7FFFFF80
7F400000
7F955400
3FFFFE00
2FFFFF80
3FFFFFD0
7F955FE0
7F400FE0
7FFFFFD0
2FFFFFC0
0FFFFFC0
02BFFFE0
00000FE0
6AAAAFE0
7FFFFFD0
7FFFFF40
7FFFF900
ENDCHAR
STARTCHAR dieresis
ENCODING 168
SWIDTH 300 0
DWIDTH 8 0
BBX 9 4 0 15
BITMAP
100400
BD2F00
FD3F40
BC2F00
ENDCHAR
STARTCHAR copyright
ENCODING 169
SWIDTH 655 0
DWIDTH 18 0
BBX 16 16 1 2
BITMAP
001AA400
01BFFF40
07F95BE0
1F8691F8
2E2FFC7D
7CBD682E
B5F0000F
B6D0000F
B6D0000F
B5E0000F
78F4041E
3D7FBC2D
1F1BF8B8
0BD006F0
02FFFF80
006FF900
ENDCHAR
STARTCHAR ordfeminine
ENCODING 170
SWIDTH 451 0
DWIDTH 13 0
BBX 10 14 1 6
BITMAP
06F810
1FFFE0
2F5FE0
7D03E0
7C02E0
7C03E0
3E0BE0
2FFFE0
0BFD60
005000
000000
6AAA90
7FFFE0
155550
ENDCHAR
STARTCHAR guillemotleft
ENCODING 171
SWIDTH 704 0
DWIDTH 20 0
BBX 18 14 1 0
BITMAP
000D000A00
003F802FC0
00FF80BFD0
03FE02FF40
0BF807FD00
2FE01FF400
BF807FD000
BFD07FE000
2FF41FF800
0BFD07FE00
02FF41FF80
00BF807FD0
002F001F40
0004000100
ENDCHAR
STARTCHAR logicalnot
ENCODING 172
SWIDTH 529 0
DWIDTH 15 0
BBX 12 7 1 5
BITMAP
6AAAAA
7FFFFF
7FFFFF
7FFFFF
0000BF
0000BF
00006A
ENDCHAR
STARTCHAR uni00AD
ENCODING 173
SWIDTH 418 0
DWIDTH 12 0
BBX 9 4 1 8
BITMAP
6AAA80
7FFFC0
7FFFC0
7FFFC0
ENDCHAR
STARTCHAR registered
ENCODING 174
SWIDTH 439 0
DWIDTH 12 0
BBX 11 11 1 9
BITMAP
01A900
1FAB40
3AA5D0
B3ADB0
D34630
D34A34
A3FC70
735CA0
2E06C0
0BFE40
005400
ENDCHAR
STARTCHAR macron
ENCODING 175
SWIDTH 247 0
DWIDTH 7 0
BBX 7 3 0 15
BITMAP
FFF8
FFFC
FFFC
ENDCHAR
STARTCHAR degree
ENCODING 176
SWIDTH 381 0
DWIDTH 11 0
BBX 9 9 1 10
BITMAP
0BF400
3FFE00
BFBF40
FC2F80
FC1F80
BE7F40
7FFF00
1FFD00
019000
ENDCHAR
STARTCHAR plusminus
ENCODING 177
SWIDTH 516 0
DWIDTH 14 0
BBX 12 15 1 0
BITMAP
00BF00
00BF00
00BF00
6AFFAA
BFFFFF
BFFFFF
7FFFFF
00BF00
00BF00
00BF00
000000
6AAAAA
BFFFFF
BFFFFF
7FFFFF
ENDCHAR
STARTCHAR twosuperior
ENCODING 178
SWIDTH 355 0
DWIDTH 10 0
BBX 8 10 1 10
BITMAP
2A90
3FF8
3FFD
017D
1FFD
3FF8
7E50
BEA9
BFFD
BFFD
ENDCHAR
STARTCHAR threesuperior
ENCODING 179
SWIDTH 354 0
DWIDTH 10 0
BBX 8 10 1 10
BITMAP
6A90
7FF8
7FFD
057E
1FFD
1FFD
0ABE
6ABE
7FFD
7FF4
ENDCHAR
STARTCHAR acute
ENCODING 180
SWIDTH 225 0
DWIDTH 6 0
BBX 6 5 0 14
BITMAP
07C0
1FE0
7FE0
BF40
3800
ENDCHAR
STARTCHAR mu
ENCODING 181
SWIDTH 571 0
DWIDTH 16 0
BBX 14 22 1 -7
BITMAP
6A400AA0
7F400FE0
7F400FE0
7F400FE0
7F400FE0
7F400FE0
7F400FE0
7F400FE0
7F400FE0
7F801FE0
7FC02FE0
7FF9BFE0
7FFFFFE0
7FFFFEE0
7FBFE460
7F050000
7F000000
7F000000
7E000000
7E000000
7E000000
14000000
ENDCHAR
STARTCHAR paragraph
ENCODING 182
SWIDTH 808 0
DWIDTH 23 0
BBX 20 20 1 0
BITMAP
0006AAAAA9
01BFFFFFFE
07FFFFFFFE
1FFFFFFFFE
3FF9BF96FE
7FD0BF41FE
BF40BF41FE
FF00BF41FE
FF00BF41FE
BF40BF41FE
BF80BF41FE
7FE0BF41FE
2FFFFF41FE
0BFFFF41FE
02FFFF41FE
006FFF41FE
0000BF41FE
0000BF41FE
0000BF41FE
0000BF41FE
ENDCHAR
STARTCHAR periodcentered
ENCODING 183
SWIDTH 261 0
DWIDTH 7 0
BBX 5 5 1 7
BITMAP
2F40
BF80
BFC0
7F80
1500
ENDCHAR
STARTCHAR cedilla
ENCODING 184
SWIDTH 208 0
DWIDTH 6 0
BBX 6 8 0 -7
BITMAP
0640
0B00
0F80
1BE0
53E0
BFE0
BF80
0500
ENDCHAR
STARTCHAR onesuperior
ENCODING 185
SWIDTH 231 0
DWIDTH 7 0
BBX 4 10 1 10
BITMAP
6A
BE
BE
3E
3E
3E
3E
3E
3E
3E
ENDCHAR
STARTCHAR ordmasculine
ENCODING 186
SWIDTH 432 0
DWIDTH 12 0
BBX 10 14 1 6
BITMAP
06F900
1FFF40
3F5FC0
7C03D0
7C02E0
7C03D0
3E0BC0
1FFF80
07FE00
005000
000000
6AAA90
7FFFE0
155550
ENDCHAR
STARTCHAR guillemotright
ENCODING 187
SWIDTH 703 0
DWIDTH 20 0
BBX 18 14 1 0
BITMAP
1D000A0000
7F402F8000
7FD03FE000
1FF41FF800
0BFD07FE00
02FF41FF80
00BFD07FE0
00BFD07FE0
02FF01FF40
0FFC0BFD00
7FE02FF400
BF807FD000
2E001F4000
0800050000
ENDCHAR
STARTCHAR onequarter
ENCODING 188
SWIDTH 648 0
DWIDTH 18 0
BBX 16 20 1 0
BITMAP
2A400690
3F800BC0
3F801F80
1F803F00
0F807D00
0F80FC00
0F82F400
0F83F000
0F8BD000
0F9F8000
002F6A00
007E3E69
00FC3E7D
01F87E7D
03F07D7D
0BD07EBE
0FC0BFFF
2F40BFFF
7E0055BD
BD00007D
ENDCHAR
STARTCHAR onehalf
ENCODING 189
SWIDTH 637 0
DWIDTH 18 0
BBX 16 20 1 0
BITMAP
2A400690
3F800BC0
3F801F80
1F803F00
0F807D00
0F80FC00
0F82F400
0F83F000
0F8BD000
0F9F8000
002F6A90
007E3FFC
00FC3FFE
01F8007E
03F01FFE
0BD03FFC
0FC07E50
2F407EA9
7E007FFE
BD007FFE
ENDCHAR
STARTCHAR threequarters
ENCODING 190
SWIDTH 708 0
DWIDTH 20 0
BBX 18 20 1 0
BITMAP
6A90006900
BFF800FC00
BFFC02F400
15BD07E000
2FFC0BD000
2FFC1F8000
1ABD3F0000
AAFD7E0000
BFF8FC0000
BFE2F40000
0003F29000
000BD7EA80
001F87DBC0
002F47DBC0
007E0BCBC0
00BD0BDFD0
01F80FFFF0
03F00FFFF0
07E0055BD0
0FC0000BC0
ENDCHAR
STARTCHAR questiondown
ENCODING 191
SWIDTH 602 0
DWIDTH 17 0
BBX 15 21 1 -4
BITMAP
00006400
0001FD00
0002FE00
0002FE00
0000B800
00000000
0001A900
0002FD00
0003FD00
01AFFC00
0BFFF400
2FFFE000
7FFF4000
BF900000
FF000000
FF000000
FF800000
BFFFFFF8
3FFFFFF8
0FFFFFF8
01BFFFF8
ENDCHAR
STARTCHAR Agrave
ENCODING 192
SWIDTH 673 0
DWIDTH 19 0
BBX 17 27 1 0
BITMAP
0010000000
0038000000
00FF000000
01FFC00000
002FE00000
0006800000
0000000000
0006A40000
00BFFF4000
02FFFFE000
0BFFFFF800
1FFD5FFD00
3FE002FE00
7FC000FF00
7F8000BF40
7F8000BF40
7F8000BF40
7F8000BF40
7F8000BF40
7FEAAAFF40
7FFFFFFF40
7FFFFFFF40
7FFFFFFF40
7F8000BF40
7F8000BF40
7F8000BF40
7F8000BF40
ENDCHAR
STARTCHAR Aacute
ENCODING 193
SWIDTH 673 0
DWIDTH 19 0
BBX 17 27 1 0
BITMAP
0000040000
00001E0000
00007F8000
0001FF8000
0002FD0000
0000E00000
0000000000
0006A40000
00BFFF4000
02FFFFE000
0BFFFFF800
1FFD5FFD00
3FE002FE00
7FC000FF00
7F8000BF40
7F8000BF40
7F8000BF40
7F8000BF40
7F8000BF40
7FEAAAFF40
7FFFFFFF40
7FFFFFFF40
7FFFFFFF40
7F8000BF40
7F8000BF40
7F8000BF40
7F8000BF40
ENDCHAR
STARTCHAR Acircumflex
ENCODING 194
SWIDTH 673 0
DWIDTH 19 0
BBX 17 26 1 0
BITMAP
0000400000
0002D00000
000BF80000
002FFE0000
002E7E0000
0008080000
0006A40000
00BFFF4000
02FFFFE000
0BFFFFF800
1FFD5FFD00
3FE002FE00
7FC000FF00
7F8000BF40
7F8000BF40
7F8000BF40
7F8000BF40
7F8000BF40
7FEAAAFF40
7FFFFFFF40
7FFFFFFF40
7FFFFFFF40
7F8000BF40
7F8000BF40
7F8000BF40
7F8000BF40
ENDCHAR
STARTCHAR Atilde
ENCODING 195
SWIDTH 673 0
DWIDTH 19 0
BBX 17 26 1 0
BITMAP
0004014000
007F8BC000
00FFEFC000
00FEFF8000
00F87F4000
0054040000
0006A40000
00BFFF4000
02FFFFE000
0BFFFFF800
1FFD5FFD00
3FE002FE00
7FC000FF00
7F8000BF40
7F8000BF40
7F8000BF40
7F8000BF40
7F8000BF40
7FEAAAFF40
7FFFFFFF40
7FFFFFFF40
7FFFFFFF40
7F8000BF40
7F8000BF40
7F8000BF40
7F8000BF40
ENDCHAR
STARTCHAR Adieresis
ENCODING 196
SWIDTH 673 0
DWIDTH 19 0
BBX 17 25 1 0
BITMAP
0014000000
007D1F4000
00BE2F8000
007D1F4000
0000000000
0006A40000
00BFFF4000
02FFFFE000
0BFFFFF800
1FFD5FFD00
3FE002FE00
7FC000FF00
7F8000BF40
7F8000BF40
7F8000BF40
7F8000BF40
7F8000BF40
7FEAAAFF40
7FFFFFFF40
7FFFFFFF40
7FFFFFFF40
7F8000BF40
7F8000BF40
7F8000BF40
7F8000BF40
ENDCHAR
STARTCHAR Aring
ENCODING 197
SWIDTH 673 0
DWIDTH 19 0
BBX 17 24 1 0
BITMAP
0007E00000
000FB80000
001E2C0000
000FBC0000
000BF80000
00BFFF4000
02FFFFE000
0BFFFFF800
1FFD5FFD00
3FE002FE00
7FC000FF00
7F8000BF40
7F8000BF40
7F8000BF40
7F8000BF40
7F8000BF40
7FEAAAFF40
7FFFFFFF40
7FFFFFFF40
7FFFFFFF40
7F8000BF40
7F8000BF40
7F8000BF40
7F8000BF40
ENDCHAR
STARTCHAR AE
ENCODING 198
SWIDTH 988 0
DWIDTH 28 0
BBX 26 20 1 0
BITMAP
0006AAAAAAAA90
00BFFFFFFFFFE0
02FFFFFFFFFFE0
0BFFFFFFFFFFE0
1FFD55BF555550
3FE000BF400000
7FC000BF400000
7F8000BF400000
7F8000BFAAA800
7F8000BFFFF800
7F8000BFFFF800
7F8000BFFFF800
7FEAAAFF555000
7FFFFFFF400000
7FFFFFFF400000
7FFFFFFF400000
7F8000BFFFFFE0
7F8000BFFFFFE0
7F8000BFFFFFE0
7F8000BFFFFFE0
ENDCHAR
STARTCHAR Ccedilla
ENCODING 199
SWIDTH 640 0
DWIDTH 18 0
BBX 18 27 0 -7
BITMAP
0001AE9400
001FFFFE40
00BFFFFFD0
02FFFFFFC0
07FF906F40
0FF8000600
1FF0000000
3FD0000000
3FC0000000
7F80000000
7F80000000
3F80000000
3FC0000000
2FE0000000
1FF4000000
0BFE000B00
03FFEABF80
01FFFFFFD0
002FFFFF80
0006FFF900
0000B54000
0000F80000
0000BE0000
00062F0000
000BFE0000
0007FD0000
0000500000
ENDCHAR
STARTCHAR Egrave
ENCODING 200
SWIDTH 578 0
DWIDTH 16 0
BBX 15 27 1 0
BITMAP
00100000
00B40000
01FD0000
02FF8000
006FC000
00074000
00000000
2AAAAAA0
7FFFFFF4
7FFFFFF4
7FFFFFF4
7F955550
7F800000
7F800000
7F800000
7FEAA800
7FFFFD00
7FFFFD00
7FFFFD00
7F955400
7F800000
7F800000
7F800000
7FFFFFF4
7FFFFFF4
7FFFFFF4
7FFFFFF4
ENDCHAR
STARTCHAR Eacute
ENCODING 201
SWIDTH 578 0
DWIDTH 16 0
BBX 15 27 1 0
BITMAP
00000400
00003C00
0000FE00
0007FF00
000BF400
00038000
00000000
2AAAAAA0
7FFFFFF4
7FFFFFF4
7FFFFFF4
7F955550
7F800000
7F800000
7F800000
7FEAA800
7FFFFD00
7FFFFD00
7FFFFD00
7F955400
7F800000
7F800000
7F800000
7FFFFFF4
7FFFFFF4
7FFFFFF4
7FFFFFF4
ENDCHAR
STARTCHAR Ecircumflex
ENCODING 202
SWIDTH 578 0
DWIDTH 16 0
BBX 15 27 1 0
BITMAP
00010000
000B8000
002FE000
00BFF800
00BDB800
00202000
00000000
2AAAAAA0
7FFFFFF4
7FFFFFF4
7FFFFFF4
7F955550
7F800000
7F800000
7F800000
7FEAA800
7FFFFD00
7FFFFD00
7FFFFD00
7F955400
7F800000
7F800000
7F800000
7FFFFFF4
7FFFFFF4
7FFFFFF4
7FFFFFF4
ENDCHAR
STARTCHAR Edieresis
ENCODING 203
SWIDTH 578 0
DWIDTH 16 0
BBX 15 25 1 0
BITMAP
00100000
01F47D00
02F8BE00
01F47D00
00000000
2AAAAAA0
7FFFFFF4
7FFFFFF4
7FFFFFF4
7F955550
7F800000
7F800000
7F800000
7FEAA800
7FFFFD00
7FFFFD00
7FFFFD00
7F955400
7F800000
7F800000
7F800000
7FFFFFF4
7FFFFFF4
7FFFFFF4
7FFFFFF4
ENDCHAR
STARTCHAR Igrave
ENCODING 204
SWIDTH 270 0
DWIDTH 8 0
BBX 7 27 -1 0
BITMAP
0400
2D00
7F40
BFE0
1FF0
01D0
0000
02A4
07F8
07F8
07F8
07F8
07F8
07F8
07F8
07F8
07F8
07F8
07F8
07F8
07F8
07F8
07F8
07F8
07F8
07F8
07F8
ENDCHAR
STARTCHAR Iacute
ENCODING 205
SWIDTH 270 0
DWIDTH 8 0
BBX 8 27 1 0
BITMAP
0010
00B4
02FC
0FFD
1FE0
0A40
0000
2A40
7F80
7F80
7F80
7F80
7F80
7F80
7F80
7F80
7F80
7F80
7F80
7F80
7F80
7F80
7F80
7F80
7F80
7F80
7F80
ENDCHAR
STARTCHAR Icircumflex
ENCODING 206
SWIDTH 270 0
DWIDTH 8 0
BBX 8 27 0 0
BITMAP
0100
0780
1FE0
7FFC
7DBD
2414
0000
0A90
1FE0
1FE0
1FE0
1FE0
1FE0
1FE0
1FE0
1FE0
1FE0
1FE0
1FE0
1FE0
1FE0
1FE0
1FE0
1FE0
1FE0
1FE0
1FE0
ENDCHAR
STARTCHAR Idieresis
ENCODING 207
SWIDTH 270 0
DWIDTH 8 0
BBX 9 25 -1 0
BITMAP
040100
3E0F80
7F1FC0
3E0F80
000000
02A400
07F800
07F800
07F800
07F800
07F800
07F800
07F800
07F800
07F800
07F800
07F800
07F800
07F800
07F800
07F800
07F800
07F800
07F800
07F800
ENDCHAR
STARTCHAR Eth
ENCODING 208
SWIDTH 672 0
DWIDTH 19 0
BBX 18 20 0 0
BITMAP
06AAA40000
0BFFFF8000
0BFFFFF400
0BFFFFFD00
0BF95BFF40
0BF401FF80
0BF4007FD0
0BF4002FE0
AFFE400FF0
FFFF800FF0
FFFF800FF0
FFFF800FF0
0BF4001FE0
0BF4003FD0
0BF400BFC0
0BF407FF40
0BFFFFFE00
0BFFFFF800
0BFFFFD000
0BFFF90000
ENDCHAR
STARTCHAR Ntilde
ENCODING 209
SWIDTH 689 0
DWIDTH 19 0
BBX 17 26 1 0
BITMAP
0005014000
007F8BC000
00BFEFC000
00BEFFC000
00BC7F4000
0054040000
2A80006A40
7FE0007F80
7FF4007F80
7FF8007F80
7FFD007F80
7FFF007F80
7FFF807F80
7FBFD07F80
7F9FE07F80
7F8BF47F80
7F87FC7F80
7F82FE7F80
7F80FFBF80
7F80BFFF80
7F803FFF80
7F801FFF80
7F800BFF80
7F8007FF80
7F8002FF80
7F8000FF80
ENDCHAR
STARTCHAR Ograve
ENCODING 210
SWIDTH 777 0
DWIDTH 22 0
BBX 21 28 0 -1
BITMAP
000040000000
0002D0000000
0007F4000000
000BFE000000
0001BF000000
00001D000000
000000000000
0001AA900000
001BFFFE0000
00BFFFFFD000
02FFFFFFF400
07FF906FFD00
0FF80007FE00
1FF00001FF40
3FD00000BF80
3FC000007FC0
7F8000003FC0
7F8000003FC0
3F8000003FC0
3FC000007F80
2FE00000BF40
1FF40002FF00
0BFE000BFE00
03FFEABFF800
01FFFFFFF000
002FFFFF8000
0006FFF90000
000015400000
ENDCHAR
STARTCHAR Oacute
ENCODING 211
SWIDTH 777 0
DWIDTH 22 0
BBX 21 28 0 -1
BITMAP
000000100000
000000B40000
000002FD0000
00000BFD0000
00001FE00000
00000B400000
000000000000
0001AA900000
001BFFFE0000
00BFFFFFD000
02FFFFFFF400
07FF906FFD00
0FF80007FE00
1FF00001FF40
3FD00000BF80
3FC000007FC0
7F8000003FC0
7F8000003FC0
3F8000003FC0
3FC000007F80
2FE00000BF40
1FF40002FF00
0BFE000BFE00
03FFEABFF800
01FFFFFFF000
002FFFFF8000
0006FFF90000
000015400000
ENDCHAR
STARTCHAR Ocircumflex
ENCODING 212
SWIDTH 777 0
DWIDTH 22 0
BBX 21 28 0 -1
BITMAP
000004000000
00001E000000
00007FC00000
0001FFF40000
0001F6F40000
000050500000
000000000000
0001AA900000
001BFFFE0000
00BFFFFFD000
02FFFFFFF400
07FF906FFD00
0FF80007FE00
1FF00001FF40
3FD00000BF80
3FC000007FC0
7F8000003FC0
7F8000003FC0
3F8000003FC0
3FC000007F80
2FE00000BF40
1FF40002FF00
0BFE000BFE00
03FFEABFF800
01FFFFFFF000
002FFFFF8000
0006FFF90000
000015400000
ENDCHAR
STARTCHAR Otilde
ENCODING 213
SWIDTH 777 0
DWIDTH 22 0
BBX 21 27 0 -1
BITMAP
000050040000
0002FD7D0000
0007FFBD0000
000BEFFD0000
0007D2F80000
000140400000
0001AA900000
001BFFFE0000
00BFFFFFD000
02FFFFFFF400
07FF906FFD00
0FF80007FE00
1FF00001FF40
3FD00000BF80
3FC000007FC0
7F8000003FC0
7F8000003FC0
3F8000003FC0
3FC000007F80
2FE00000BF40
1FF40002FF00
0BFE000BFE00
03FFEABFF800
01FFFFFFF000
002FFFFF8000
0006FFF90000
000015400000
ENDCHAR
STARTCHAR Odieresis
ENCODING 214
SWIDTH 777 0
DWIDTH 22 0
BBX 21 26 0 -1
BITMAP
000040100000
0003E0F80000
0007F1FC0000
0003E0F80000
000000000000
0001AA900000
001BFFFE0000
00BFFFFFD000
02FFFFFFF400
07FF906FFD00
0FF80007FE00
1FF00001FF40
3FD00000BF80
3FC000007FC0
7F8000003FC0
7F8000003FC0
3F8000003FC0
3FC000007F80
2FE00000BF40
1FF40002FF00
0BFE000BFE00
03FFEABFF800
01FFFFFFF000
002FFFFF8000
0006FFF90000
000015400000
ENDCHAR
STARTCHAR multiply
ENCODING 215
SWIDTH 479 0
DWIDTH 13 0
BBX 11 11 1 4
BITMAP
0A01D0
2F87F4
7FEFF8
2FFFE0
0BFF80
07FF80
1FFFE0
7FFFF8
2F8BF4
0A02D0
000040
ENDCHAR
STARTCHAR Oslash
ENCODING 216
SWIDTH 777 0
DWIDTH 22 0
BBX 21 21 0 -1
BITMAP
0001AA90A900
001BFFFFFC00
00BFFFFFF400
02FFFFFFF400
07FF907FFD00
0FF800BFFE00
1FF001FEFF40
3FD003F8BF80
3FC00BF03FC0
7F801FD03FC0
7F807F803FC0
3F80FE003FC0
3FC2FC007F80
2FE7F400BF40
1FFFE002FF00
0BFFC00BFE00
03FFEABFF800
01FFFFFFF000
03FFFFFF8000
0BF6FFF90000
000015400000
ENDCHAR
STARTCHAR Ugrave
ENCODING 217
SWIDTH 673 0
DWIDTH 19 0
BBX 17 27 1 0
BITMAP
0004000000
002D000000
00BF400000
00BFD00000
001FE00000
0002C00000
0000000000
6A40006A40
7F8000BF40
7F8000BF40
7F8000BF40
7F8000BF40
7F8000BF40
7F8000BF40
7F8000BF40
7F8000BF40
7F8000BF40
7F8000BF40
7F8000BF40
7F8000BF40
7F8000FF00
3FD002FF00
2FF80BFE00
0FFFFFFC00
07FFFFF400
01FFFF8000
001BF90000
ENDCHAR
STARTCHAR Uacute
ENCODING 218
SWIDTH 673 0
DWIDTH 19 0
BBX 17 27 1 0
BITMAP
0000010000
00000F0000
00007F8000
0001FF8000
0002FD0000
0000E00000
0000000000
6A40006A40
7F8000BF40
7F8000BF40
7F8000BF40
7F8000BF40
7F8000BF40
7F8000BF40
7F8000BF40
7F8000BF40
7F8000BF40
7F8000BF40
7F8000BF40
7F8000BF40
7F8000FF00
3FD002FF00
2FF80BFE00
0FFFFFFC00
07FFFFF400
01FFFF8000
001BF90000
ENDCHAR
STARTCHAR Ucircumflex
ENCODING 219
SWIDTH 673 0
DWIDTH 19 0
BBX 17 26 1 0
BITMAP
0000400000
0002D00000
000BF80000
002FFE0000
002E7E0000
0008080000
6A40006A40
7F8000BF40
7F8000BF40
7F8000BF40
7F8000BF40
7F8000BF40
7F8000BF40
7F8000BF40
7F8000BF40
7F8000BF40
7F8000BF40
7F8000BF40
7F8000BF40
7F8000FF00
3FD002FF00
2FF80BFE00
0FFFFFFC00
07FFFFF400
01FFFF8000
001BF90000
ENDCHAR
STARTCHAR Udieresis
ENCODING 220
SWIDTH 673 0
DWIDTH 19 0
BBX 17 25 1 0
BITMAP
0014000000
007D1F4000
00BE2F8000
007D1F4000
0000000000
6A40006A40
7F8000BF40
7F8000BF40
7F8000BF40
7F8000BF40
7F8000BF40
7F8000BF40
7F8000BF40
7F8000BF40
7F8000BF40
7F8000BF40
7F8000BF40
7F8000BF40
7F8000FF00
3FD002FF00
2FF80BFE00
0FFFFFFC00
07FFFFF400
01FFFF8000
001BF90000
ENDCHAR
STARTCHAR Yacute
ENCODING 221
SWIDTH 620 0
DWIDTH 17 0
BBX 17 27 0 0
BITMAP
0000010000
00000B0000
00003FC000
0000FFD000
0002FE0000
0000A40000
0000000000
2A40006A40
7F80007F80
7F80007F80
7F80007F80
7F80007F80
7F80007F80
3F80007F40
3FC000BF40
2FE001FF40
1FF807FE00
0FFFBFFD00
07FFFFF400
01FFFFD000
001BFE0000
0007F80000
0007F80000
0007F80000
0007F80000
0007F80000
0007F80000
ENDCHAR
STARTCHAR Thorn
ENCODING 222
SWIDTH 637 0
DWIDTH 18 0
BBX 17 22 1 -1
BITMAP
1540000000
7F80000000
7F80000000
7FEAA40000
7FFFFF8000
7FFFFFF000
7FFFFFFC00
7F955BFE00
7F8002FF00
7F8000FF40
7F8000BF40
7F80007F40
7F8000BF40
7F8001FF00
7F8007FE00
7FFFFFFD00
7FFFFFF400
7FFFFFD000
7FFFF90000
7F80000000
7F80000000
2A80000000
ENDCHAR
STARTCHAR germandbls
ENCODING 223
SWIDTH 813 0
DWIDTH 23 0
BBX 23 22 0 0
BITMAP
0006BFE40000
002FFFFF4000
00FFFFFFD000
02FFFFFFE000
07FD001FF000
07F4000BF000
0BF4000FF000
6FF401BFE000
7FF41FFFD000
7FF47FFF8000
7FF4BFF90000
0BF4FF000000
0BF4FF000000
0BF4BFFFFE40
0BF47FFFFFD0
0BF41FFFFFF0
0BF402AAAFF4
0BF4000007F8
0BF42AAAAFF4
0BF43FFFFFF0
0BF43FFFFFD0
0BF43FFFFE40
ENDCHAR
STARTCHAR agrave
ENCODING 224
SWIDTH 607 0
DWIDTH 17 0
BBX 16 24 0 -1
BITMAP
00100000
00780000
00FE0000
01FF8000
002FD000
00078000
00000000
00000000
006FF905
02FFFF5E
0BFFFFFE
1FFEBFFE
2FE00BFE
3FC002FE
7F8001FE
7F4001FE
7F8001FE
3FC002FE
3FE00BFE
1FFEAFFE
0BFFFFFE
02FFFF9E
007FF90A
00014000
ENDCHAR
STARTCHAR aacute
ENCODING 225
SWIDTH 607 0
DWIDTH 17 0
BBX 16 24 0 -1
BITMAP
00000400
00002D00
0000BF40
0002FF40
0007F800
0002D000
00000000
00000000
006FF905
02FFFF5E
0BFFFFFE
1FFEBFFE
2FE00BFE
3FC002FE
7F8001FE
7F4001FE
7F8001FE
3FC002FE
3FE00BFE
1FFEAFFE
0BFFFFFE
02FFFF9E
007FF90A
00014000
ENDCHAR
STARTCHAR acircumflex
ENCODING 226
SWIDTH 607 0
DWIDTH 17 0
BBX 16 22 0 -1
BITMAP
0003D000
000FF400
007FFD00
007E7D00
00141800
00000000
006FF905
02FFFF5E
0BFFFFFE
1FFEBFFE
2FE00BFE
3FC002FE
7F8001FE
7F4001FE
7F8001FE
3FC002FE
3FE00BFE
1FFEAFFE
0BFFFFFE
02FFFF9E
007FF90A
00014000
ENDCHAR
STARTCHAR atilde
ENCODING 227
SWIDTH 607 0
DWIDTH 17 0
BBX 16 22 0 -1
BITMAP
00040100
00BF4F80
01FFEF80
01FFFF40
01F4BE00
00541400
006FF905
02FFFF5E
0BFFFFFE
1FFEBFFE
2FE00BFE
3FC002FE
7F8001FE
7F4001FE
7F8001FE
3FC002FE
3FE00BFE
1FFEAFFE
0BFFFFFE
02FFFF9E
007FF90A
00014000
ENDCHAR
STARTCHAR adieresis
ENCODING 228
SWIDTH 607 0
DWIDTH 17 0
BBX 16 21 0 -1
BITMAP
00100400
00BC2F00
00FD3F40
00BC2F00
00000000
006FF905
02FFFF5E
0BFFFFFE
1FFEBFFE
2FE00BFE
3FC002FE
7F8001FE
7F4001FE
7F8001FE
3FC002FE
3FE00BFE
1FFEAFFE
0BFFFFFE
02FFFF9E
007FF90A
00014000
ENDCHAR
STARTCHAR aring
ENCODING 229
SWIDTH 607 0
DWIDTH 17 0
BBX 16 23 0 -1
BITMAP
00069000
000FF400
002D7800
001E7800
000FF400
00019000
00000000
006FF905
02FFFF5E
0BFFFFFE
1FFEBFFE
2FE00BFE
3FC002FE
7F8001FE
7F4001FE
7F8001FE
3FC002FE
3FE00BFE
1FFEAFFE
0BFFFFFE
02FFFF9E
007FF90A
00014000
ENDCHAR
STARTCHAR ae
ENCODING 230
SWIDTH 976 0
DWIDTH 27 0
BBX 27 17 0 -1
BITMAP
00000000004000
006FF9051FFE40
02FFFF5EFFFFD0
0BFFFFFFFFFFF4
1FFEBFFFFEAFF4
2FE00BFFF42FE0
3FC002FFE0BF80
7F8001FFD1FF00
7F4001FFC3FD00
7F8001FFCBF400
3FC002FFFFD040
3FE00BFFFF82D0
1FFEAFFFFFAFF4
0BFFFFFFFFFFF4
02FFFF9EFFFFE0
007FF90A2FFE40
00014000005000
ENDCHAR
STARTCHAR ccedilla
ENCODING 231
SWIDTH 521 0
DWIDTH 15 0
BBX 14 22 0 -7
BITMAP
006FF900
01FFFF80
07FFFFE0
1FFEBFF0
2FE00BC0
3FC00200
7F800000
7F400000
7F400000
7F800100
3FE00780
1FFEAFE0
0BFFFFE0
02FFFF80
006FF900
00078000
000BD000
000AF000
0026F400
007FF000
002FD000
00050000
ENDCHAR
STARTCHAR egrave
ENCODING 232
SWIDTH 524 0
DWIDTH 15 0
BBX 14 24 0 -1
BITMAP
00100000
00B40000
01FD0000
02FF8000
006FC000
00074000
00000000
00000000
006FF900
02FFFF80
0BFFFFE0
1FFEBFE0
2FE07FC0
3FC1FF40
7F83FD00
7F4BF800
7F9FE000
3FFF8100
2FFF0780
1FFEAFE0
0BFFFFE0
02FFFF80
006FFD00
00014000
ENDCHAR
STARTCHAR eacute
ENCODING 233
SWIDTH 524 0
DWIDTH 15 0
BBX 14 24 0 -1
BITMAP
00000400
00002D00
0000BF40
0002FF40
0007F800
0002D000
00000000
00000000
006FF900
02FFFF80
0BFFFFE0
1FFEBFE0
2FE07FC0
3FC1FF40
7F83FD00
7F4BF800
7F9FE000
3FFF8100
2FFF0780
1FFEAFE0
0BFFFFE0
02FFFF80
006FFD00
00014000
ENDCHAR
STARTCHAR ecircumflex
ENCODING 234
SWIDTH 524 0
DWIDTH 15 0
BBX 14 23 0 -1
BITMAP
00010000
000B4000
002FE000
00BFF800
00B9F800
00202000
00000000
006FF900
02FFFF80
0BFFFFE0
1FFEBFE0
2FE07FC0
3FC1FF40
7F83FD00
7F4BF800
7F9FE000
3FFF8100
2FFF0780
1FFEAFE0
0BFFFFE0
02FFFF80
006FFD00
00014000
ENDCHAR
STARTCHAR edieresis
ENCODING 235
SWIDTH 524 0
DWIDTH 15 0
BBX 14 21 0 -1
BITMAP
00500000
01F47D00
02F8BE00
01F47D00
00000000
006FF900
02FFFF80
0BFFFFE0
1FFEBFE0
2FE07FC0
3FC1FF40
7F83FD00
7F4BF800
7F9FE000
3FFF8100
2FFF0780
1FFEAFE0
0BFFFFE0
02FFFF80
006FFD00
00014000
ENDCHAR
STARTCHAR igrave
ENCODING 236
SWIDTH 235 0
DWIDTH 7 0
BBX 8 22 -2 0
BITMAP
0400
0E00
2FC0
7FF0
0BF8
00A0
0000
01A8
02FD
02FD
02FD
02FD
02FD
02FD
02FD
02FD
02FD
02FD
02FD
02FD
02FD
02FD
ENDCHAR
STARTCHAR iacute
ENCODING 237
SWIDTH 235 0
DWIDTH 7 0
BBX 7 22 1 0
BITMAP
0040
01E0
07F4
1FF8
3FD0
1E00
0000
6A00
BF40
BF40
BF40
BF40
BF40
BF40
BF40
BF40
BF40
BF40
BF40
BF40
BF40
BF40
ENDCHAR
STARTCHAR icircumflex
ENCODING 238
SWIDTH 235 0
DWIDTH 7 0
BBX 7 22 0 0
BITMAP
0100
0B40
2FD0
BFF8
F9F8
2020
0000
1A80
2FD0
2FD0
2FD0
2FD0
2FD0
2FD0
2FD0
2FD0
2FD0
2FD0
2FD0
2FD0
2FD0
2FD0
ENDCHAR
STARTCHAR idieresis
ENCODING 239
SWIDTH 235 0
DWIDTH 7 0
BBX 9 20 -1 0
BITMAP
100000
BD2F40
FE2F40
7D1F40
000000
06A000
0BF400
0BF400
0BF400
0BF400
0BF400
0BF400
0BF400
0BF400
0BF400
0BF400
0BF400
0BF400
0BF400
0BF400
ENDCHAR
STARTCHAR eth
ENCODING 240
SWIDTH 581 0
DWIDTH 16 0
BBX 16 23 0 -1
BITMAP
00055000
000BF800
01ABFEA8
01FFFFFC
01FFFFFC
01AABFE8
00002FD0
002FFFE0
01FFFFF0
0BFFFFF8
1FFEBFFC
2FE00BFC
3FC002FD
7F8001FD
7F4001FE
7F8001FD
3FC002FD
2FE007FC
1FFEAFF8
0BFFFFE0
02FFFF80
006FFD00
00014000
ENDCHAR
STARTCHAR ntilde
ENCODING 241
SWIDTH 562 0
DWIDTH 16 0
BBX 14 21 1 0
BITMAP
00500400
02FD7D00
07FFBD00
0BEFFD00
07D2F800
01405000
506F9000
B7FFFC00
BFFFFF00
BFFFFF80
BFD07FC0
BF402FD0
BF401FD0
BF001FE0
BF001FE0
BF001FE0
BF001FE0
BF001FE0
BF001FE0
BF001FE0
BF001FE0
ENDCHAR
STARTCHAR ograve
ENCODING 242
SWIDTH 579 0
DWIDTH 16 0
BBX 16 24 0 -1
BITMAP
00100000
00780000
01FE0000
01FF8000
002FD000
00078000
00000000
00000000
006FF900
02FFFF80
0BFFFFE0
1FFEBFF8
2FE00BFC
3FC002FD
7F8001FD
7F4001FE
7F8001FD
3FC002FD
2FE007FC
1FFEAFF8
0BFFFFE0
02FFFF80
006FFD00
00014000
ENDCHAR
STARTCHAR oacute
ENCODING 243
SWIDTH 579 0
DWIDTH 16 0
BBX 16 24 0 -1
BITMAP
00000400
00002D00
0000BF40
0002FF40
0007F800
0002D000
00000000
00000000
006FF900
02FFFF80
0BFFFFE0
1FFEBFF8
2FE00BFC
3FC002FD
7F8001FD
7F4001FE
7F8001FD
3FC002FD
2FE007FC
1FFEAFF8
0BFFFFE0
02FFFF80
006FFD00
00014000
ENDCHAR
STARTCHAR ocircumflex
ENCODING 244
SWIDTH 579 0
DWIDTH 16 0
BBX 16 22 0 -1
BITMAP
0003D000
001FF400
007FFD00
007D7D00
00141800
00000000
006FF900
02FFFF80
0BFFFFE0
1FFEBFF8
2FE00BFC
3FC002FD
7F8001FD
7F4001FE
7F8001FD
3FC002FD
2FE007FC
1FFEAFF8
0BFFFFE0
02FFFF80
006FFD00
00014000
ENDCHAR
STARTCHAR otilde
ENCODING 245
SWIDTH 579 0
DWIDTH 16 0
BBX 16 22 0 -1
BITMAP
00040100
00BF4F40
01FFEF80
01FBFF40
01F4BE00
00545400
006FF900
02FFFF80
0BFFFFE0
1FFEBFF8
2FE00BFC
3FC002FD
7F8001FD
7F4001FE
7F8001FD
3FC002FD
2FE007FC
1FFEAFF8
0BFFFFE0
02FFFF80
006FFD00
00014000
ENDCHAR
STARTCHAR odieresis
ENCODING 246
SWIDTH 579 0
DWIDTH 16 0
BBX 16 21 0 -1
BITMAP
00100400
00BC2F00
00FD3F40
00BC2F00
00000000
006FF900
02FFFF80
0BFFFFE0
1FFEBFF8
2FE00BFC
3FC002FD
7F8001FD
7F4001FE
7F8001FD
3FC002FD
2FE007FC
1FFEAFF8
0BFFFFE0
02FFFF80
006FFD00
00014000
ENDCHAR
STARTCHAR divide
ENCODING 247
SWIDTH 494 0
DWIDTH 14 0
BBX 12 14 1 3
BITMAP
002800
00FE00
00FF00
00BD00
000000
AAAAAA
BFFFFE
BFFFFE
BFFFFE
000000
00BD00
00FF00
00FE00
002800
ENDCHAR
STARTCHAR oslash
ENCODING 248
SWIDTH 579 0
DWIDTH 16 0
BBX 16 16 0 -1
BITMAP
006FFAA9
02FFFFF8
0BFFFFF0
1FFEBFF8
2FE07FFC
3FC1FFFD
7F83F9FD
7F4BF1FE
7F9FD1FD
3FFF82FD
2FFF07FC
1FFEAFF8
0BFFFFE0
1FFFFF80
3FEFFD00
00014000
ENDCHAR
STARTCHAR ugrave
ENCODING 249
SWIDTH 562 0
DWIDTH 16 0
BBX 14 23 1 -1
BITMAP
00400000
02D00000
07F40000
0BFD0000
01FF0000
001D0000
00000000
6A001A90
BF001FD0
BF001FD0
BF001FD0
BF001FD0
BF001FD0
BF001FD0
BF001FD0
BF001FD0
BF002FD0
7F807FD0
3FEAFFD0
2FFFFFD0
0BFFFAD0
01FFD0D0
00050000
ENDCHAR
STARTCHAR uacute
ENCODING 250
SWIDTH 562 0
DWIDTH 16 0
BBX 14 23 1 -1
BITMAP
00001000
0000B400
0002FC00
000FFD00
001FE000
000A4000
00000000
6A001A90
BF001FD0
BF001FD0
BF001FD0
BF001FD0
BF001FD0
BF001FD0
BF001FD0
BF001FD0
BF002FD0
7F807FD0
3FEAFFD0
2FFFFFD0
0BFFFAD0
01FFD0D0
00050000
ENDCHAR
STARTCHAR ucircumflex
ENCODING 251
SWIDTH 562 0
DWIDTH 16 0
BBX 14 22 1 -1
BITMAP
00040000
001E0000
007F8000
01FFF000
02F6F000
00909000
6A001A90
BF001FD0
BF001FD0
BF001FD0
BF001FD0
BF001FD0
BF001FD0
BF001FD0
BF001FD0
BF002FD0
7F807FD0
3FEAFFD0
2FFFFFD0
0BFFFAD0
01FFD0D0
00050000
ENDCHAR
STARTCHAR udieresis
ENCODING 252
SWIDTH 562 0
DWIDTH 16 0
BBX 14 21 1 -1
BITMAP
00401000
03E0F800
07F1FC00
03E0F800
00000000
6A001A90
BF001FD0
BF001FD0
BF001FD0
BF001FD0
BF001FD0
BF001FD0
BF001FD0
BF001FD0
BF002FD0
7F807FD0
3FEAFFD0
2FFFFFD0
0BFFFAD0
01FFD0D0
00050000
ENDCHAR
STARTCHAR yacute
ENCODING 253
SWIDTH 562 0
DWIDTH 16 0
BBX 14 28 1 -6
BITMAP
00001000
0000B400
0002FC00
000FFD00
001FE000
000A4000
00000000
6A001A90
BF001FD0
BF001FD0
BF001FD0
BF001FD0
BF001FD0
BF001FD0
BF001FD0
BF001FD0
BF002FD0
7F807FD0
3FEAFFD0
2FFFFFD0
0BFFFFD0
01FFBFD0
00057FC0
0046FF40
00FFFF00
00FFFC00
00FFE000
00A90000
ENDCHAR
STARTCHAR thorn
ENCODING 254
SWIDTH 608 0
DWIDTH 17 0
BBX 16 27 1 -6
BITMAP
6A400000
BF400000
BF400000
BF400000
BF400000
BF400000
BFAFF900
BFFFFF80
BFFFFFE0
BFFEBFF4
BFE00BF8
BF8003FC
BF4001FD
BF4001FD
BF4001FD
BF8003FD
BFD00BFC
BFFABFF4
BFFFFFE0
BFFFFF80
BF6FFD00
BF414000
BF400000
BF400000
BF400000
BF400000
6A000000
ENDCHAR
STARTCHAR ydieresis
ENCODING 255
SWIDTH 562 0
DWIDTH 16 0
BBX 14 26 1 -6
BITMAP
00401000
03E0F800
07F1FC00
03E0F800
00000000
6A001A90
BF001FD0
BF001FD0
BF001FD0
BF001FD0
BF001FD0
BF001FD0
BF001FD0
BF001FD0
BF002FD0
7F807FD0
3FEAFFD0
2FFFFFD0
0BFFFFD0
01FFBFD0
00057FC0
0046FF40
00FFFF00
00FFFC00
00FFE000
00A90000
ENDCHAR
STARTCHAR Amacron
ENCODING 256
SWIDTH 673 0
DWIDTH 19 0
BBX 17 24 1 0
BITMAP
003FFE0000
003FFF0000
003FFF0000
0000000000
0006A40000
00BFFF4000
02FFFFE000
0BFFFFF800
1FFD5FFD00
3FE002FE00
7FC000FF00
7F8000BF40
7F8000BF40
7F8000BF40
7F8000BF40
7F8000BF40
7FEAAAFF40
7FFFFFFF40
7FFFFFFF40
7FFFFFFF40
7F8000BF40
7F8000BF40
7F8000BF40
7F8000BF40
ENDCHAR
STARTCHAR amacron
ENCODING 257
SWIDTH 607 0
DWIDTH 17 0
BBX 16 20 0 -1
BITMAP
007FFD00
00BFFD00
00BFFD00
00000000
006FF905
02FFFF5E
0BFFFFFE
1FFEBFFE
2FE00BFE
3FC002FE
7F8001FE
7F4001FE
7F8001FE
3FC002FE
3FE00BFE
1FFEAFFE
0BFFFFFE
02FFFF9E
007FF90A
00014000
ENDCHAR
STARTCHAR Abreve
ENCODING 258
SWIDTH 673 0
DWIDTH 19 0
BBX 17 25 1 0
BITMAP
002E3D0000
002FBD0000
001FFC0000
0006E40000
0000000000
0006A40000
00BFFF4000
02FFFFE000
0BFFFFF800
1FFD5FFD00
3FE002FE00
7FC000FF00
7F8000BF40
7F8000BF40
7F8000BF40
7F8000BF40
7F8000BF40
7FEAAAFF40
7FFFFFFF40
7FFFFFFF40
7FFFFFFF40
7F8000BF40
7F8000BF40
7F8000BF40
7F8000BF40
ENDCHAR
STARTCHAR abreve
ENCODING 259
SWIDTH 607 0
DWIDTH 17 0
BBX 16 21 0 -1
BITMAP
007DB800
007EF800
002FF800
000BE000
00000000
006FF905
02FFFF5E
0BFFFFFE
1FFEBFFE
2FE00BFE
3FC002FE
7F8001FE
7F4001FE
7F8001FE
3FC002FE
3FE00BFE
1FFEAFFE
0BFFFFFE
02FFFF9E
007FF90A
00014000
ENDCHAR
STARTCHAR Aogonek
ENCODING 260
SWIDTH 673 0
DWIDTH 19 0
BBX 17 25 1 -5
BITMAP
0006A40000
00BFFF4000
02FFFFE000
0BFFFFF800
1FFD5FFD00
3FE002FE00
7FC000FF00
7F8000BF40
7F8000BF40
7F8000BF40
7F8000BF40
7F8000BF40
7FEAAAFF40
7FFFFFFF40
7FFFFFFF40
7FFFFFFF40
7F8000BF40
7F8000BF40
7F8000BF40
7F8000BF40
000000B800
000001F000
000002FB40
000001FFC0
0000007E40
ENDCHAR
STARTCHAR aogonek
ENCODING 261
SWIDTH 607 0
DWIDTH 17 0
BBX 18 20 0 -5
BITMAP
006FF90500
02FFFF5E00
0BFFFFFE00
1FFEBFFE00
2FE00BFE00
3FC002FE00
7F8001FE00
7F4001FE00
7F8001FE00
3FC002FE00
3FE00BFE00
1FFEAFFE00
0BFFFFFE00
02FFFF9E00
007FF91E00
0001407D00
000000B800
000000FE80
000000BFE0
0000002F40
ENDCHAR
STARTCHAR Cacute
ENCODING 262
SWIDTH 640 0
DWIDTH 18 0
BBX 18 28 0 -1
BITMAP
0000004000
000001E000
000007F400
00001FF800
00003FD000
00001E0000
0000000000
0001AE9400
001FFFFE40
00BFFFFFD0
02FFFFFFC0
07FF906F40
0FF8000600
1FF0000000
3FD0000000
3FC0000000
7F80000000
7F80000000
3F80000000
3FC0000000
2FE0000000
1FF4000000
0BFE000B00
03FFEABF80
01FFFFFFD0
002FFFFF80
0006FFF900
0000154000
ENDCHAR
STARTCHAR cacute
ENCODING 263
SWIDTH 521 0
DWIDTH 15 0
BBX 14 24 0 -1
BITMAP
00000400
00002C00
0000FF00
0003FF40
000BF800
00029000
00000000
00000000
006FF900
01FFFF80
07FFFFE0
1FFEBFF0
2FE00BC0
3FC00200
7F800000
7F400000
7F400000
7F800100
3FE00780
1FFEAFE0
0BFFFFE0
02FFFF80
006FF900
00014000
ENDCHAR
STARTCHAR Ccircumflex
ENCODING 264
SWIDTH 640 0
DWIDTH 18 0
BBX 18 28 0 -1
BITMAP
0000040000
00002D0000
0000BF4000
0002FFE000
0003E7E000
0000808000
0000000000
0001AE9400
001FFFFE40
00BFFFFFD0
02FFFFFFC0
07FF906F40
0FF8000600
1FF0000000
3FD0000000
3FC0000000
7F80000000
7F80000000
3F80000000
3FC0000000
2FE0000000
1FF4000000
0BFE000B00
03FFEABF80
01FFFFFFD0
002FFFFF80
0006FFF900
0000154000
ENDCHAR
STARTCHAR ccircumflex
ENCODING 265
SWIDTH 521 0
DWIDTH 15 0
BBX 14 22 0 -1
BITMAP
0007C000
001FF400
007FFD00
007D7D00
00141800
00000000
006FF900
01FFFF80
07FFFFE0
1FFEBFF0
2FE00BC0
3FC00200
7F800000
7F400000
7F400000
7F800100
3FE00780
1FFEAFE0
0BFFFFE0
02FFFF80
006FF900
00014000
ENDCHAR
STARTCHAR Cdotaccent
ENCODING 266
SWIDTH 640 0
DWIDTH 18 0
BBX 18 26 0 -1
BITMAP
0000050000
00002F4000
00003F4000
00001E0000
0000000000
0001AE9400
001FFFFE40
00BFFFFFD0
02FFFFFFC0
07FF906F40
0FF8000600
1FF0000000
3FD0000000
3FC0000000
7F80000000
7F80000000
3F80000000
3FC0000000
2FE0000000
1FF4000000
0BFE000B00
03FFEABF80
01FFFFFFD0
002FFFFF80
0006FFF900
0000154000
ENDCHAR
STARTCHAR cdotaccent
ENCODING 267
SWIDTH 521 0
DWIDTH 15 0
BBX 14 21 0 -1
BITMAP
00014000
0007E000
000BE000
0002D000
00000000
006FF900
01FFFF80
07FFFFE0
1FFEBFF0
2FE00BC0
3FC00200
7F800000
7F400000
7F400000
7F800100
3FE00780
1FFEAFE0
0BFFFFE0
02FFFF80
006FF900
00014000
ENDCHAR
STARTCHAR Ccaron
ENCODING 268
SWIDTH 640 0
DWIDTH 18 0
BBX 18 28 0 -1
BITMAP
0000404000
0001E2E000
0002FFF000
0000BFC000
00001F0000
0000040000
0000000000
0001AE9400
001FFFFE40
00BFFFFFD0
02FFFFFFC0
07FF906F40
0FF8000600
1FF0000000
3FD0000000
3FC0000000
7F80000000
7F80000000
3F80000000
3FC0000000
2FE0000000
1FF4000000
0BFE000B00
03FFEABF80
01FFFFFFD0
002FFFFF80
0006FFF900
0000154000
ENDCHAR
STARTCHAR ccaron
ENCODING 269
SWIDTH 521 0
DWIDTH 15 0
BBX 14 23 0 -1
BITMAP
00140400
003D7D00
007FFD00
001FF400
0007D000
00004000
00000000
006FF900
01FFFF80
07FFFFE0
1FFEBFF0
2FE00BC0
3FC00200
7F800000
7F400000
7F400000
7F800100
3FE00780
1FFEAFE0
0BFFFFE0
02FFFF80
006FF900
00014000
ENDCHAR
STARTCHAR Dcaron
ENCODING 270
SWIDTH 653 0
DWIDTH 18 0
BBX 17 26 1 0
BITMAP
0014040000
003D7D0000
007FFE0000
001FF40000
0003D00000
0000400000
2AAA500000
7FFFF90000
7FFFFF8000
7FFFFFE000
7FD5BFF800
7F800BFD00
7F8002FE00
7F8000FF00
7F8000BF40
7F80007F40
7F80007F80
7F8000BF40
7F8000FF40
7F8001FF00
7F8007FE00
7F806FFC00
7FFFFFF400
7FFFFFD000
7FFFFE0000
7FFFA40000
ENDCHAR
STARTCHAR dcaron
ENCODING 271
SWIDTH 740 0
DWIDTH 21 0
BBX 21 22 0 -1
BITMAP
000000550000
000001FE0900
000001FE2F80
000001FE3F80
000001FE1F80
000041FE0B40
006FF9FE0A00
02FFFFFE0000
0BFFFFFE0000
1FFEBFFE0000
2FE00BFE0000
3FC002FE0000
7F8001FE0000
7F4001FE0000
7F8001FE0000
3FC002FE0000
2FE00BFE0000
1FFEAFFE0000
0BFFFFFE0000
02FFFF9E0000
006FF90A0000
000140000000
ENDCHAR
STARTCHAR Dcroat
ENCODING 272
SWIDTH 672 0
DWIDTH 19 0
BBX 18 20 0 0
BITMAP
06AAA40000
0BFFFF8000
0BFFFFF400
0BFFFFFD00
0BF95BFF40
0BF401FF80
0BF4007FD0
0BF4002FE0
AFFE400FF0
FFFF800FF0
FFFF800FF0
FFFF800FF0
0BF4001FE0
0BF4003FD0
0BF400BFC0
0BF407FF40
0BFFFFFE00
0BFFFFF800
0BFFFFD000
0BFFF90000
ENDCHAR
STARTCHAR dcroat
ENCODING 273
SWIDTH 606 0
DWIDTH 17 0
BBX 17 22 0 -1
BITMAP
0000005500
000006FF80
00000BFFC0
00000BFFC0
00000BFFC0
000041FE00
006FF9FE00
02FFFFFE00
0BFFFFFE00
1FFEBFFE00
2FE00BFE00
3FC002FE00
7F8001FE00
7F4001FE00
7F8001FE00
3FC002FE00
2FE00BFE00
1FFEAFFE00
0BFFFFFE00
02FFFF9E00
006FF90A00
0001400000
ENDCHAR
STARTCHAR Emacron
ENCODING 274
SWIDTH 578 0
DWIDTH 16 0
BBX 15 24 1 0
BITMAP
007FFD00
00BFFD00
00BFFD00
00000000
2AAAAAA0
7FFFFFF4
7FFFFFF4
7FFFFFF4
7F955550
7F800000
7F800000
7F800000
7FEAA800
7FFFFD00
7FFFFD00
7FFFFD00
7F955400
7F800000
7F800000
7F800000
7FFFFFF4
7FFFFFF4
7FFFFFF4
7FFFFFF4
ENDCHAR
STARTCHAR emacron
ENCODING 275
SWIDTH 524 0
DWIDTH 15 0
BBX 14 20 0 -1
BITMAP
007FFD00
00BFFD00
00BFFD00
00004000
006FF900
02FFFF80
0BFFFFE0
1FFEBFE0
2FE07FC0
3FC1FF40
7F83FD00
7F4BF800
7F9FE000
3FFF8100
2FFF0780
1FFEAFE0
0BFFFFE0
02FFFF80
006FFD00
00014000
ENDCHAR
STARTCHAR Ebreve
ENCODING 276
SWIDTH 578 0
DWIDTH 16 0
BBX 15 25 1 0
BITMAP
00BCF400
007EF800
003FF400
001B9000
00000000
2AAAAAA0
7FFFFFF4
7FFFFFF4
7FFFFFF4
7F955550
7F800000
7F800000
7F800000
7FEAA800
7FFFFD00
7FFFFD00
7FFFFD00
7F955400
7F800000
7F800000
7F800000
7FFFFFF4
7FFFFFF4
7FFFFFF4
7FFFFFF4
ENDCHAR
STARTCHAR ebreve
ENCODING 277
SWIDTH 524 0
DWIDTH 15 0
BBX 14 21 0 -1
BITMAP
007CB800
007EF800
003FF400
000BD000
00000000
006FF900
02FFFF80
0BFFFFE0
1FFEBFE0
2FE07FC0
3FC1FF40
7F83FD00
7F4BF800
7F9FE000
3FFF8100
2FFF0780
1FFEAFE0
0BFFFFE0
02FFFF80
006FFD00
00014000
ENDCHAR
STARTCHAR Edotaccent
ENCODING 278
SWIDTH 578 0
DWIDTH 16 0
BBX 15 25 1 0
BITMAP
00014000
000FD000
000FD000
00078000
00000000
2AAAAAA0
7FFFFFF4
7FFFFFF4
7FFFFFF4
7F955550
7F800000
7F800000
7F800000
7FEAA800
7FFFFD00
7FFFFD00
7FFFFD00
7F955400
7F800000
7F800000
7F800000
7FFFFFF4
7FFFFFF4
7FFFFFF4
7FFFFFF4
ENDCHAR
STARTCHAR edotaccent
ENCODING 279
SWIDTH 524 0
DWIDTH 15 0
BBX 14 21 0 -1
BITMAP
00014000
000BD000
000BE000
0007C000
00000000
006FF900
02FFFF80
0BFFFFE0
1FFEBFE0
2FE07FC0
3FC1FF40
7F83FD00
7F4BF800
7F9FE000
3FFF8100
2FFF0780
1FFEAFE0
0BFFFFE0
02FFFF80
006FFD00
00014000
ENDCHAR
STARTCHAR Eogonek
ENCODING 280
SWIDTH 578 0
DWIDTH 16 0
BBX 15 25 1 -5
BITMAP
2AAAAAA0
7FFFFFF4
7FFFFFF4
7FFFFFF4
7F955550
7F800000
7F800000
7F800000
7FEAA800
7FFFFD00
7FFFFD00
7FFFFD00
7F955400
7F800000
7F800000
7F800000
7FFFFFF4
7FFFFFF4
7FFFFFF4
7FFFFFF4
00002E00
00007C00
0000BED0
00007FF0
00001F80
ENDCHAR
STARTCHAR eogonek
ENCODING 281
SWIDTH 524 0
DWIDTH 15 0
BBX 14 20 0 -5
BITMAP
006FF900
02FFFF80
0BFFFFE0
1FFEBFE0
2FE07FC0
3FC1FF40
7F83FD00
7F4BF800
7F9FE000
3FFF8100
2FFF0780
1FFEAFE0
0BFFFFE0
02FFFF80
006FFE00
0001B800
0001F000
0002FB40
0001FFC0
00007E40
ENDCHAR
STARTCHAR Ecaron
ENCODING 282
SWIDTH 578 0
DWIDTH 16 0
BBX 15 26 1 0
BITMAP
00201000
00B8B800
00BFFC00
002FF000
000BC000
00010000
2AAAAAA0
7FFFFFF4
7FFFFFF4
7FFFFFF4
7F955550
7F800000
7F800000
7F800000
7FEAA800
7FFFFD00
7FFFFD00
7FFFFD00
7F955400
7F800000
7F800000
7F800000
7FFFFFF4
7FFFFFF4
7FFFFFF4
7FFFFFF4
ENDCHAR
STARTCHAR ecaron
ENCODING 283
SWIDTH 524 0
DWIDTH 15 0
BBX 14 23 0 -1
BITMAP
00101400
007D7C00
007FFD00
001FF400
0007D000
00014000
00000000
006FF900
02FFFF80
0BFFFFE0
1FFEBFE0
2FE07FC0
3FC1FF40
7F83FD00
7F4BF800
7F9FE000
3FFF8100
2FFF0780
1FFEAFE0
0BFFFFE0
02FFFF80
006FFD00
00014000
ENDCHAR
STARTCHAR Gcircumflex
ENCODING 284
SWIDTH 665 0
DWIDTH 19 0
BBX 18 28 0 -1
BITMAP
0000040000
00002D0000
0000BF8000
0002FFE000
0002E7E000
0000808000
0000000000
0001AA9000
001BFFFE00
00BFFFFFD0
02FFFFFFC0
07FF906F40
0FFC000600
1FF0000000
3FD0000000
3FC0000000
7F80000000
7F80001A90
3F80001FD0
3FC0001FD0
2FE0001FD0
1FF4001FD0
0BFE001FD0
03FFEABFD0
01FFFFFFD0
002FFFFF80
0006FFF900
0000154000
ENDCHAR
STARTCHAR gcircumflex
ENCODING 285
SWIDTH 607 0
DWIDTH 17 0
BBX 16 27 0 -6
BITMAP
0007C000
001FF400
007FFD00
007D7D00
00141800
00000000
006FF905
02FFFF5E
0BFFFFFE
1FFEBFFE
2FE00BFE
3FC002FE
7F8001FE
7F4001FE
7F8001FE
3FC002FE
3FE00BFE
1FFEAFFE
0BFFFFFE
02FFFFFE
006FFEFD
000143FD
00001FF8
000BFFF4
000BFFD0
000BFE40
00069400
ENDCHAR
STARTCHAR Gbreve
ENCODING 286
SWIDTH 665 0
DWIDTH 19 0
BBX 18 26 0 -1
BITMAP
0001F2D000
0001FBE000
0000FFD000
00006E4000
0000000000
0001AA9000
001BFFFE00
00BFFFFFD0
02FFFFFFC0
07FF906F40
0FFC000600
1FF0000000
3FD0000000
3FC0000000
7F80000000
7F80001A90
3F80001FD0
3FC0001FD0
2FE0001FD0
1FF4001FD0
0BFE001FD0
03FFEABFD0
01FFFFFFD0
002FFFFF80
0006FFF900
0000154000
ENDCHAR
STARTCHAR gbreve
ENCODING 287
SWIDTH 607 0
DWIDTH 17 0
BBX 16 26 0 -6
BITMAP
003D7C00
003EBC00
002FF800
000BE000
00000000
006FF905
02FFFF5E
0BFFFFFE
1FFEBFFE
2FE00BFE
3FC002FE
7F8001FE
7F4001FE
7F8001FE
3FC002FE
3FE00BFE
1FFEAFFE
0BFFFFFE
02FFFFFE
006FFEFD
000143FD
00001FF8
000BFFF4
000BFFD0
000BFE40
00069400
ENDCHAR
STARTCHAR Gdotaccent
ENCODING 288
SWIDTH 665 0
DWIDTH 19 0
BBX 18 26 0 -1
BITMAP
0000140000
00003F0000
00007F0000
00002E0000
0000000000
0001AA9000
001BFFFE00
00BFFFFFD0
02FFFFFFC0
07FF906F40
0FFC000600
1FF0000000
3FD0000000
3FC0000000
7F80000000
7F80001A90
3F80001FD0
3FC0001FD0
2FE0001FD0
1FF4001FD0
0BFE001FD0
03FFEABFD0
01FFFFFFD0
002FFFFF80
0006FFF900
0000154000
ENDCHAR
STARTCHAR gdotaccent
ENCODING 289
SWIDTH 607 0
DWIDTH 17 0
BBX 16 26 0 -6
BITMAP
00014000
000BD000
000BE000
0007D000
00000000
006FF905
02FFFF5E
0BFFFFFE
1FFEBFFE
2FE00BFE
3FC002FE
7F8001FE
7F4001FE
7F8001FE
3FC002FE
3FE00BFE
1FFEAFFE
0BFFFFFE
02FFFFFE
006FFEFD
000143FD
00001FF8
000BFFF4
000BFFD0
000BFE40
00069400
ENDCHAR
STARTCHAR Gcommaaccent
ENCODING 290
SWIDTH 665 0
DWIDTH 19 0
BBX 18 27 0 -7
BITMAP
0001AA9000
001BFFFE00
00BFFFFFD0
02FFFFFFC0
07FF906F40
0FFC000600
1FF0000000
3FD0000000
3FC0000000
7F80000000
7F80001A90
3F80001FD0
3FC0001FD0
2FE0001FD0
1FF4001FD0
0BFE001FD0
03FFEABFD0
01FFFFFFD0
002FFFFF80
0006FFF900
0000154000
0000190000
00007F0000
00007F4000
00002F0000
00000E0000
00001D0000
ENDCHAR
STARTCHAR gcommaaccent
ENCODING 291
SWIDTH 607 0
DWIDTH 17 0
BBX 16 28 0 -6
BITMAP
00014000
00078000
000B8000
000FE000
000FE000
0007D000
00004000
006FF905
02FFFF5E
0BFFFFFE
1FFEBFFE
2FE00BFE
3FC002FE
7F8001FE
7F4001FE
7F8001FE
3FC002FE
3FE00BFE
1FFEAFFE
0BFFFFFE
02FFFFFE
006FFEFD
000143FD
00001FF8
000BFFF4
000BFFD0
000BFE40
00069400
ENDCHAR
STARTCHAR Hcircumflex
ENCODING 292
SWIDTH 689 0
DWIDTH 19 0
BBX 17 26 1 0
BITMAP
0000400000
0001E00000
000BF80000
002FFE0000
002F6F0000
0008090000
2A40006A40
7F80007F80
7F80007F80
7F80007F80
7F80007F80
7F80007F80
7F80007F80
7F80007F80
7FEAAAFF80
7FFFFFFF80
7FFFFFFF80
7FFFFFFF80
7F9555BF80
7F80007F80
7F80007F80
7F80007F80
7F80007F80
7F80007F80
7F80007F80
7F80007F80
ENDCHAR
STARTCHAR hcircumflex
ENCODING 293
SWIDTH 562 0
DWIDTH 16 0
BBX 14 22 1 0
BITMAP
00004000
5502E000
BF0BF800
BF6FFE00
BF6F6E00
BF080800
BF000000
BF6F9000
BFFFFC00
BFFFFF00
BFFFFF80
BFD07FC0
BF402FD0
BF401FD0
BF001FE0
BF001FE0
BF001FE0
BF001FE0
BF001FE0
BF001FE0
BF001FE0
BF001FE0
ENDCHAR
STARTCHAR Hbar
ENCODING 294
SWIDTH 689 0
DWIDTH 19 0
BBX 19 20 0 0
BITMAP
0A90001A90
1FE0001FE0
1FE5556FE0
BFFFFFFFFC
BFFFFFFFFC
BFFFFFFFFC
6FFAAAAFE4
1FE0001FE0
1FFAAABFE0
1FFFFFFFE0
1FFFFFFFE0
1FFFFFFFE0
1FE5556FE0
1FE0001FE0
1FE0001FE0
1FE0001FE0
1FE0001FE0
1FE0001FE0
1FE0001FE0
1FE0001FE0
ENDCHAR
STARTCHAR hbar
ENCODING 295
SWIDTH 562 0
DWIDTH 16 0
BBX 15 21 0 0
BITMAP
15400000
BFE40000
FFF40000
FFF40000
BFF40000
2FC00000
2FDBE400
2FFFFF00
2FFFFFC0
2FFFFFE0
2FF41FF0
2FD00BF4
2FD007F4
2FC007F8
2FC007F8
2FC007F8
2FC007F8
2FC007F8
2FC007F8
2FC007F8
2FC007F8
ENDCHAR
STARTCHAR Itilde
ENCODING 296
SWIDTH 270 0
DWIDTH 8 0
BBX 10 26 -1 0
BITMAP
050040
3FC7D0
BFFBD0
BEFFC0
BC7F40
140400
02A400
07F800
07F800
07F800
07F800
07F800
07F800
07F800
07F800
07F800
07F800
07F800
07F800
07F800
07F800
07F800
07F800
07F800
07F800
07F800
ENDCHAR
STARTCHAR itilde
ENCODING 297
SWIDTH 235 0
DWIDTH 7 0
BBX 9 21 -1 0
BITMAP
040140
7F4F80
FFEF80
FEFF80
F8BF00
540400
06A000
0BF400
0BF400
0BF400
0BF400
0BF400
0BF400
0BF400
0BF400
0BF400
0BF400
0BF400
0BF400
0BF400
0BF400
ENDCHAR
STARTCHAR Imacron
ENCODING 298
SWIDTH 270 0
DWIDTH 8 0
BBX 8 24 0 0
BITMAP
BFFD
BFFD
BFFD
0000
0A90
1FE0
1FE0
1FE0
1FE0
1FE0
1FE0
1FE0
1FE0
1FE0
1FE0
1FE0
1FE0
1FE0
1FE0
1FE0
1FE0
1FE0
1FE0
1FE0
ENDCHAR
STARTCHAR imacron
ENCODING 299
SWIDTH 235 0
DWIDTH 7 0
BBX 7 19 0 0
BITMAP
FFF8
FFF8
FFF8
0000
1A80
2FD0
2FD0
2FD0
2FD0
2FD0
2FD0
2FD0
2FD0
2FD0
2FD0
2FD0
2FD0
2FD0
2FD0
ENDCHAR
STARTCHAR Ibreve
ENCODING 300
SWIDTH 270 0
DWIDTH 8 0
BBX 6 25 1 0
BITMAP
F5E0
FBF0
BFE0
2F80
0000
2A40
7F80
7F80
7F80
7F80
7F80
7F80
7F80
7F80
7F80
7F80
7F80
7F80
7F80
7F80
7F80
7F80
7F80
7F80
7F80
ENDCHAR
STARTCHAR ibreve
ENCODING 301
SWIDTH 235 0
DWIDTH 7 0
BBX 7 20 0 0
BITMAP
B8F4
BEF4
7FF0
1B90
0000
1A80
2FD0
2FD0
2FD0
2FD0
2FD0
2FD0
2FD0
2FD0
2FD0
2FD0
2FD0
2FD0
2FD0
2FD0
ENDCHAR
STARTCHAR Iogonek
ENCODING 302
SWIDTH 270 0
DWIDTH 8 0
BBX 6 25 1 -5
BITMAP
2A40
7F80
7F80
7F80
7F80
7F80
7F80
7F80
7F80
7F80
7F80
7F80
7F80
7F80
7F80
7F80
7F80
7F80
7F80
7F80
7C00
F800
FE80
BFE0
2F40
ENDCHAR
STARTCHAR iogonek
ENCODING 303
SWIDTH 235 0
DWIDTH 7 0
BBX 7 26 0 -5
BITMAP
1F80
3FE0
3FE0
3FD0
0A80
0000
1A80
2FD0
2FD0
2FD0
2FD0
2FD0
2FD0
2FD0
2FD0
2FD0
2FD0
2FD0
2FD0
2FD0
2FD0
1E00
3D00
7ED0
3FF4
1B90
ENDCHAR
STARTCHAR Idotaccent
ENCODING 304
SWIDTH 270 0
DWIDTH 8 0
BBX 5 25 1 0
BITMAP
0500
2F40
3F40
1E00
0000
2A40
7F80
7F80
7F80
7F80
7F80
7F80
7F80
7F80
7F80
7F80
7F80
7F80
7F80
7F80
7F80
7F80
7F80
7F80
7F80
ENDCHAR
STARTCHAR dotlessi
ENCODING 305
SWIDTH 235 0
DWIDTH 7 0
BBX 5 15 1 0
BITMAP
6A00
BF40
BF40
BF40
BF40
BF40
BF40
BF40
BF40
BF40
BF40
BF40
BF40
BF40
BF40
ENDCHAR
STARTCHAR IJ
ENCODING 306
SWIDTH 687 0
DWIDTH 19 0
BBX 17 20 1 0
BITMAP
2A40002A40
7F80007F80
7F80007F80
7F80007F80
7F80007F80
7F80007F80
7F80007F80
7F80007F80
7F80007F80
7F80007F80
7F80007F80
7F80007F80
7F80007F80
7F8000BF80
7F8000FF40
7F8107FF00
7F83FFFD00
7F83FFF800
7F83FFD000
7F83FA0000
ENDCHAR
STARTCHAR ij
ENCODING 307
SWIDTH 474 0
DWIDTH 13 0
BBX 12 27 1 -6
BITMAP
7E02F8
FF87FD
FF87FD
FF47FD
2A01A4
000000
6A02A8
BF43FC
BF43FC
BF43FC
BF43FC
BF43FC
BF43FC
BF43FC
BF43FC
BF43FC
BF43FC
BF43FC
BF43FC
BF43F8
BF47F8
000BF4
057FF0
2FFFD0
2FFF40
2FF900
1A5000
ENDCHAR
STARTCHAR Jcircumflex
ENCODING 308
SWIDTH 416 0
DWIDTH 12 0
BBX 12 26 0 0
BITMAP
0003D0
001FF4
007FFD
007D7D
001418
000000
000AA0
000BF0
000BF0
000BF0
000BF0
000BF0
000BF0
000BF0
000BF0
000BF0
000BF0
000BF0
000FF0
000FF0
002FE0
40BFD0
BFFF80
BFFF00
BFF800
BF9000
ENDCHAR
STARTCHAR jcircumflex
ENCODING 309
SWIDTH 237 0
DWIDTH 7 0
BBX 11 27 -4 -6
BITMAP
000100
000B40
002FD0
00BFF8
00F9F8
002020
001A90
002FD0
002FD0
002FD0
002FD0
002FD0
002FD0
002FD0
002FD0
002FD0
002FD0
002FD0
002FD0
002FD0
003FC0
007F80
46FF40
FFFE00
FFF800
FFE000
A90000
ENDCHAR
STARTCHAR Kcommaaccent
ENCODING 310
SWIDTH 625 0
DWIDTH 18 0
BBX 17 27 1 -7
BITMAP
2A4000AA00
7F8002FE00
7F800BFC00
7F801FF400
7F803FD000
7F80BF8000
7F81FF0000
7F87FD0000
7F8FF80000
7FAFF80000
7FFFFD0000
7FFFFF0000
7FFDFF4000
7FF87FC000
7FF03FD000
7FD01FF000
7F800FF800
7F8007FC00
7F8002FE00
7F8001FF40
0000000000
0006400000
000FD00000
000FE00000
000BD00000
0002C00000
0003800000
ENDCHAR
STARTCHAR kcommaaccent
ENCODING 311
SWIDTH 539 0
DWIDTH 15 0
BBX 14 28 1 -7
BITMAP
55000000
BF400000
BF400000
BF400000
BF400000
BF400000
BF401A90
BF407FD0
BF40FF40
BF42FE00
BF47F800
BF5FF000
BF7FD000
BFFFE000
BFFFF400
BFFFFC00
BFF6FD00
BFD1FF00
BF80BF80
BF403FD0
BF402FE0
00000000
00190000
003F4000
007F4000
002F4000
000F0000
001D0000
ENDCHAR
STARTCHAR kgreenlandic
ENCODING 312
SWIDTH 539 0
DWIDTH 15 0
BBX 14 15 1 0
BITMAP
6A001A90
BF407FD0
BF40FF40
BF42FE00
BF47F800
BF5FF000
BF7FD000
BFFFE000
BFFFF400
BFFFFC00
BFF6FD00
BFD1FF00
BF80BF80
BF403FD0
BF402FE0
ENDCHAR
STARTCHAR Lacute
ENCODING 313
SWIDTH 562 0
DWIDTH 16 0
BBX 15 25 1 0
BITMAP
00004000
0001E000
0007F800
001FF800
003FD000
2A5E0000
7F800000
7F800000
7F800000
7F800000
7F800000
7F800000
7F800000
7F800000
7F800000
7F800000
7F800000
7F800000
7F800000
7F800000
7F800000
7FFFFFF8
7FFFFFF8
7FFFFFF8
7FFFFFF8
ENDCHAR
STARTCHAR lacute
ENCODING 314
SWIDTH 235 0
DWIDTH 7 0
BBX 8 28 1 0
BITMAP
0010
0078
02FD
0BFE
0FE4
0740
0000
5500
BF40
BF40
BF40
BF40
BF40
BF40
BF40
BF40
BF40
BF40
BF40
BF40
BF40
BF40
BF40
BF40
BF40
BF40
BF40
BF40
ENDCHAR
STARTCHAR Lcommaaccent
ENCODING 315
SWIDTH 562 0
DWIDTH 16 0
BBX 15 27 1 -7
BITMAP
2A400000
7F800000
7F800000
7F800000
7F800000
7F800000
7F800000
7F800000
7F800000
7F800000
7F800000
7F800000
7F800000
7F800000
7F800000
7F800000
7FFFFFF8
7FFFFFF8
7FFFFFF8
7FFFFFF8
00000000
00090000
002F8000
003F8000
001F8000
000B4000
000A0000
ENDCHAR
STARTCHAR lcommaaccent
ENCODING 316
SWIDTH 235 0
DWIDTH 7 0
BBX 5 28 1 -7
BITMAP
5500
BF40
BF40
BF40
BF40
BF40
BF40
BF40
BF40
BF40
BF40
BF40
BF40
BF40
BF40
BF40
BF40
BF40
BF40
BF40
BF40
0000
1900
7F00
BF00
3F00
1E00
1C00
ENDCHAR
STARTCHAR Lcaron
ENCODING 317
SWIDTH 562 0
DWIDTH 16 0
BBX 15 20 1 0
BITMAP
2A418000
7F87F000
7F8BF000
7F83F000
7F81E000
7F81C000
7F800000
7F800000
7F800000
7F800000
7F800000
7F800000
7F800000
7F800000
7F800000
7F800000
7FFFFFF8
7FFFFFF8
7FFFFFF8
7FFFFFF8
ENDCHAR
STARTCHAR lcaron
ENCODING 318
SWIDTH 369 0
DWIDTH 10 0
BBX 10 21 1 0
BITMAP
550000
BF4640
BF5FC0
BF5FD0
BF4BC0
BF43C0
BF4740
BF4000
BF4000
BF4000
BF4000
BF4000
BF4000
BF4000
BF4000
BF4000
BF4000
BF4000
BF4000
BF4000
BF4000
ENDCHAR
STARTCHAR Ldot
ENCODING 319
SWIDTH 745 0
DWIDTH 21 0
BBX 19 20 1 0
BITMAP
2A40000000
7F80000000
7F80000000
7F80000000
7F80000000
7F80000000
7F80000000
7F80000000
7F800007E0
7F80000FF4
7F80000FF4
7F80000BF0
7F80000140
7F80000000
7F80000000
7F80000000
7FFFFFF800
7FFFFFF800
7FFFFFF800
7FFFFFF800
ENDCHAR
STARTCHAR ldotaccent
ENCODING 320
SWIDTH 463 0
DWIDTH 13 0
BBX 11 21 1 0
BITMAP
550000
BF4000
BF4000
BF4000
BF4000
BF4000
BF4000
BF4000
BF4000
BF47E0
BF4BF8
BF4FF8
BF4BF4
BF4150
BF4000
BF4000
BF4000
BF4000
BF4000
BF4000
BF4000
ENDCHAR
STARTCHAR Lslash
ENCODING 321
SWIDTH 585 0
DWIDTH 16 0
BBX 17 20 0 0
BITMAP
06A4000000
0BF4000000
0BF4000000
0BF4000000
0BF4000000
0BF4000000
0BF5800000
0BFF800000
0BFF800000
1BFF800000
BFFD000000
BFF4000000
BFF4000000
ABF4000000
0BF4000000
0BF4000000
0BFFFFFF40
0BFFFFFF40
0BFFFFFF40
0BFFFFFF40
ENDCHAR
STARTCHAR lslash
ENCODING 322
SWIDTH 319 0
DWIDTH 9 0
BBX 9 21 0 0
BITMAP
055000
07F400
07F400
07F400
07F400
07F400
07F400
07F580
07FF80
07FF80
0BFF80
BFFD00
BFF400
BFF400
ABF400
07F400
07F400
07F400
07F400
07F400
07F400
ENDCHAR
STARTCHAR Nacute
ENCODING 323
SWIDTH 689 0
DWIDTH 19 0
BBX 17 26 1 0
BITMAP
0000010000
00000F0000
00007F8000
0001FF8000
0002FD0000
0000E00000
2A80006A40
7FE0007F80
7FF4007F80
7FF8007F80
7FFD007F80
7FFF007F80
7FFF807F80
7FBFD07F80
7F9FE07F80
7F8BF47F80
7F87FC7F80
7F82FE7F80
7F80FFBF80
7F80BFFF80
7F803FFF80
7F801FFF80
7F800BFF80
7F8007FF80
7F8002FF80
7F8000FF80
ENDCHAR
STARTCHAR nacute
ENCODING 324
SWIDTH 562 0
DWIDTH 16 0
BBX 14 23 1 0
BITMAP
00001000
00007800
0001FE00
0007FE00
000BF400
00038000
00000000
00000000
506F9000
B7FFFC00
BFFFFF00
BFFFFF80
BFD07FC0
BF402FD0
BF401FD0
BF001FE0
BF001FE0
BF001FE0
BF001FE0
BF001FE0
BF001FE0
BF001FE0
BF001FE0
ENDCHAR
STARTCHAR Ncommaaccent
ENCODING 325
SWIDTH 689 0
DWIDTH 19 0
BBX 17 27 1 -7
BITMAP
2A80006A40
7FE0007F80
7FF4007F80
7FF8007F80
7FFD007F80
7FFF007F80
7FFF807F80
7FBFD07F80
7F9FE07F80
7F8BF47F80
7F87FC7F80
7F82FE7F80
7F80FFBF80
7F80BFFF80
7F803FFF80
7F801FFF80
7F800BFF80
7F8007FF80
7F8002FF80
7F8000FF80
0000000000
0001900000
0003F40000
0003F80000
0002F40000
0000B00000
0000D00000
ENDCHAR
STARTCHAR ncommaaccent
ENCODING 326
SWIDTH 562 0
DWIDTH 16 0
BBX 14 22 1 -7
BITMAP
506F9000
B7FFFC00
BFFFFF00
BFFFFF80
BFD07FC0
BF402FD0
BF401FD0
BF001FE0
BF001FE0
BF001FE0
BF001FE0
BF001FE0
BF001FE0
BF001FE0
BF001FE0
00000000
00090000
002F8000
003F8000
001F8000
000B4000
000A0000
ENDCHAR
STARTCHAR Ncaron
ENCODING 327
SWIDTH 689 0
DWIDTH 19 0
BBX 17 26 1 0
BITMAP
0008040000
002E2E0000
002FFF0000
000BFC0000
0002F00000
0000400000
2A80006A40
7FE0007F80
7FF4007F80
7FF8007F80
7FFD007F80
7FFF007F80
7FFF807F80
7FBFD07F80
7F9FE07F80
7F8BF47F80
7F87FC7F80
7F82FE7F80
7F80FFBF80
7F80BFFF80
7F803FFF80
7F801FFF80
7F800BFF80
7F8007FF80
7F8002FF80
7F8000FF80
ENDCHAR
STARTCHAR ncaron
ENCODING 328
SWIDTH 562 0
DWIDTH 16 0
BBX 14 22 1 0
BITMAP
00404000
01F5F000
02FFF400
007FD000
001F4000
00050000
00000000
506F9000
B7FFFC00
BFFFFF00
BFFFFF80
BFD07FC0
BF402FD0
BF401FD0
BF001FE0
BF001FE0
BF001FE0
BF001FE0
BF001FE0
BF001FE0
BF001FE0
BF001FE0
ENDCHAR
STARTCHAR napostrophe
ENCODING 329
SWIDTH 694 0
DWIDTH 19 0
BBX 19 20 0 0
BITMAP
2400000000
BE00000000
FE00000000
7E00000000
2D00000000
28242BE400
003DFFFE00
003FFFFF80
003FFFFFD0
003FE02FE0
003FD00BF0
003FC00BF4
003FC00BF4
003FC00BF4
003FC00BF4
003FC00BF4
003FC00BF4
003FC00BF4
003FC00BF4
003FC00BF4
ENDCHAR
STARTCHAR Eng
ENCODING 330
SWIDTH 689 0
DWIDTH 19 0
BBX 17 26 1 -6
BITMAP
2A80006A40
7FE0007F80
7FF4007F80
7FF8007F80
7FFD007F80
7FFF007F80
7FFF807F80
7FBFD07F80
7F9FE07F80
7F8BF47F80
7F87FC7F80
7F82FE7F80
7F80FFBF80
7F80BFFF80
7F803FFF80
7F801FFF80
7F800BFF80
7F8007FF40
7F8002FF40
7F8000FF40
000002FF00
00065BFE00
0007FFF800
0007FFF000
0007FF8000
0002A40000
ENDCHAR
STARTCHAR eng
ENCODING 331
SWIDTH 562 0
DWIDTH 16 0
BBX 14 21 1 -6
BITMAP
506F9000
B7FFFC00
BFFFFF00
BFFFFF80
BFD07FC0
BF402FD0
BF401FD0
BF001FE0
BF001FE0
BF001FE0
BF001FE0
BF001FE0
BF001FE0
BF001FD0
BF002FD0
00007FC0
0005FF80
00FFFF00
00FFFD00
00FFE000
00A90000
ENDCHAR
STARTCHAR Omacron
ENCODING 332
SWIDTH 777 0
DWIDTH 22 0
BBX 21 25 0 -1
BITMAP
0002FFF40000
0002FFF40000
0002FFF40000
000000000000
0001AA900000
001BFFFE0000
00BFFFFFD000
02FFFFFFF400
07FF906FFD00
0FF80007FE00
1FF00001FF40
3FD00000BF80
3FC000007FC0
7F8000003FC0
7F8000003FC0
3F8000003FC0
3FC000007F80
2FE00000BF40
1FF40002FF00
0BFE000BFE00
03FFEABFF800
01FFFFFFF000
002FFFFF8000
0006FFF90000
000015400000
ENDCHAR
STARTCHAR omacron
ENCODING 333
SWIDTH 579 0
DWIDTH 16 0
BBX 16 20 0 -1
BITMAP
007FFE00
007FFE00
007FFE00
00004000
006FF900
02FFFF80
0BFFFFE0
1FFEBFF8
2FE00BFC
3FC002FD
7F8001FD
7F4001FE
7F8001FD
3FC002FD
2FE007FC
1FFEAFF8
0BFFFFE0
02FFFF80
006FFD00
00014000
ENDCHAR
STARTCHAR Obreve
ENCODING 334
SWIDTH 777 0
DWIDTH 22 0
BBX 21 26 0 -1
BITMAP
0000F5F00000
0000FAF00000
0000BFE00000
00002F800000
000000000000
0001AA900000
001BFFFE0000
00BFFFFFD000
02FFFFFFF400
07FF906FFD00
0FF80007FE00
1FF00001FF40
3FD00000BF80
3FC000007FC0
7F8000003FC0
7F8000003FC0
3F8000003FC0
3FC000007F80
2FE00000BF40
1FF40002FF00
0BFE000BFE00
03FFEABFF800
01FFFFFFF000
002FFFFF8000
0006FFF90000
000015400000
ENDCHAR
STARTCHAR obreve
ENCODING 335
SWIDTH 579 0
DWIDTH 16 0
BBX 16 21 0 -1
BITMAP
002E7C00
002FBD00
001FFC00
0006E000
00000000
006FF900
02FFFF80
0BFFFFE0
1FFEBFF8
2FE00BFC
3FC002FD
7F8001FD
7F4001FE
7F8001FD
3FC002FD
2FE007FC
1FFEAFF8
0BFFFFE0
02FFFF80
006FFD00
00014000
ENDCHAR
STARTCHAR Ohungarumlaut
ENCODING 336
SWIDTH 777 0
DWIDTH 22 0
BBX 21 29 0 -1
BITMAP
000018000000
00003E0A0000
0000BFAF8000
0001FE7FD000
0003F8FF0000
0001D0F80000
000000200000
000000000000
0001AA900000
001BFFFE0000
00BFFFFFD000
02FFFFFFF400
07FF906FFD00
0FF80007FE00
1FF00001FF40
3FD00000BF80
3FC000007FC0
7F8000003FC0
7F8000003FC0
3F8000003FC0
3FC000007F80
2FE00000BF40
1FF40002FF00
0BFE000BFE00
03FFEABFF800
01FFFFFFF000
002FFFFF8000
0006FFF90000
000015400000
ENDCHAR
STARTCHAR ohungarumlaut
ENCODING 337
SWIDTH 579 0
DWIDTH 16 0
BBX 16 23 0 -1
BITMAP
00024000
000BD1D0
001FF7F4
007FDFF4
00BE2FD0
00282F40
00000800
006FF900
02FFFF80
0BFFFFE0
1FFEBFF8
2FE00BFC
3FC002FD
7F8001FD
7F4001FE
7F8001FD
3FC002FD
2FE007FC
1FFEAFF8
0BFFFFE0
02FFFF80
006FFD00
00014000
ENDCHAR
STARTCHAR OE
ENCODING 338
SWIDTH 1125 0
DWIDTH 32 0
BBX 31 21 0 -1
BITMAP
0001AA902AAAAAA4
001BFFFE3FFFFFF8
00BFFFFFFFFFFFF8
02FFFFFFFFFFFFF8
07FF906FFFD55554
0FF80007FFC00000
1FF00001FFC00000
3FD00000BFC00000
3FC000007FEAA900
7F8000003FFFFE00
7F8000003FFFFE00
3F8000003FFFFE00
3FC000007FD55400
2FE00000BFC00000
1FF40002FFC00000
0BFE000BFFC00000
03FFEABFFFFFFFF8
01FFFFFFFFFFFFF8
002FFFFFBFFFFFF8
0006FFF93FFFFFF8
0000154000000000
ENDCHAR
STARTCHAR oe
ENCODING 339
SWIDTH 924 0
DWIDTH 26 0
BBX 25 17 0 -1
BITMAP
00000000010000
006FF900BFF400
02FFFF87FFFE00
0BFFFFFFFFFFC0
1FFEBFFFFAFFC0
2FE00BFF81FF40
3FC002FF43FD00
7F8001FE0BF800
7F4001FE1FE000
7F8001FE7F8000
3FC002FFFF0400
2FE007FFFD1E00
1FFEAFFFFABF80
0BFFFFFFFFFFC0
02FFFF87FFFF40
006FFD01BFF800
00014000050000
ENDCHAR
STARTCHAR Racute
ENCODING 340
SWIDTH 651 0
DWIDTH 18 0
BBX 17 27 1 0
BITMAP
0000040000
00002D0000
0000BF0000
0002FF4000
0007F80000
0002D00000
0000000000
2AAAA40000
7FFFFF8000
7FFFFFE000
7FFFFFF800
7F955BFD00
7F8002FF00
7F8000FF40
7F8000BF40
7F80007F40
7F8000BF40
7F8001FF00
7F8007FE00
7FEAFFFD00
7FFFFFF400
7FFFFFD000
7FFFFFC000
7F802FE000
7F801FF000
7F800BF400
7F8007F800
ENDCHAR
STARTCHAR racute
ENCODING 341
SWIDTH 414 0
DWIDTH 12 0
BBX 11 22 1 0
BITMAP
000100
000B40
002FD0
00BFD0
01FE40
007400
000000
501AA4
B6FFF4
BFFFF4
BFFFF4
BFE400
BF8000
BF4000
BF0000
BF0000
BF0000
BF0000
BF0000
BF0000
BF0000
BF0000
ENDCHAR
STARTCHAR Rcommaaccent
ENCODING 342
SWIDTH 651 0
DWIDTH 18 0
BBX 17 27 1 -7
BITMAP
2AAAA40000
7FFFFF8000
7FFFFFE000
7FFFFFF800
7F955BFD00
7F8002FF00
7F8000FF40
7F8000BF40
7F80007F40
7F8000BF40
7F8001FF00
7F8007FE00
7FEAFFFD00
7FFFFFF400
7FFFFFD000
7FFFFFC000
7F802FE000
7F801FF000
7F800BF400
7F8007F800
0000000000
0001800000
000BE00000
000BF00000
0007E00000
0001E00000
0002C00000
ENDCHAR
STARTCHAR rcommaaccent
ENCODING 343
SWIDTH 414 0
DWIDTH 12 0
BBX 11 22 1 -7
BITMAP
501AA4
B6FFF4
BFFFF4
BFFFF4
BFE400
BF8000
BF4000
BF0000
BF0000
BF0000
BF0000
BF0000
BF0000
BF0000
BF0000
000000
180000
7F0000
BF0000
3F0000
1E0000
1C0000
ENDCHAR
STARTCHAR Rcaron
ENCODING 344
SWIDTH 651 0
DWIDTH 18 0
BBX 17 26 1 0
BITMAP
0014040000
003D7D0000
007FFD0000
001FF40000
0007D00000
0000400000
2AAAA40000
7FFFFF8000
7FFFFFE000
7FFFFFF800
7F955BFD00
7F8002FF00
7F8000FF40
7F8000BF40
7F80007F40
7F8000BF40
7F8001FF00
7F8007FE00
7FEAFFFD00
7FFFFFF400
7FFFFFD000
7FFFFFC000
7F802FE000
7F801FF000
7F800BF400
7F8007F800
ENDCHAR
STARTCHAR rcaron
ENCODING 345
SWIDTH 414 0
DWIDTH 12 0
BBX 11 21 1 0
BITMAP
040400
1F1F00
2FFF40
0BFD00
01F400
004000
501AA4
B6FFF4
BFFFF4
BFFFF4
BFE400
BF8000
BF4000
BF0000
BF0000
BF0000
BF0000
BF0000
BF0000
BF0000
BF0000
ENDCHAR
STARTCHAR Sacute
ENCODING 346
SWIDTH 610 0
DWIDTH 17 0
BBX 17 27 0 0
BITMAP
0000010000
00000B4000
00002FC000
0000BFD000
0001FE0000
0000B40000
0000000000
005AAAA900
02FFFFFE00
0FFFFFFE00
2FFFFFFE00
3FE5555500
7F80000000
7F80000000
7FC0000000
3FFAAA4000
1FFFFFF400
07FFFFFC00
01BFFFFE00
000156FF00
000000BF40
000000BF40
000001FF40
1FFFFFFE00
1FFFFFFD00
1FFFFFF400
1FFFFF8000
ENDCHAR
STARTCHAR sacute
ENCODING 347
SWIDTH 523 0
DWIDTH 15 0
BBX 13 22 1 0
BITMAP
00001000
0000B400
0002FC00
000FFD00
001FE000
000A4000
00000000
01AAAA00
1FFFFF00
7FFFFF00
BFFFFF00
FF000000
FE000000
BFFFF800
7FFFFF00
1FFFFF80
06AABFC0
00002FC0
AAAABFC0
FFFFFF80
FFFFFE00
FFFFF800
ENDCHAR
STARTCHAR Scircumflex
ENCODING 348
SWIDTH 610 0
DWIDTH 17 0
BBX 17 27 0 0
BITMAP
0000400000
0002E00000
000BF80000
002FFE0000
002F6F0000
0008080000
0000000000
005AAAA900
02FFFFFE00
0FFFFFFE00
2FFFFFFE00
3FE5555500
7F80000000
7F80000000
7FC0000000
3FFAAA4000
1FFFFFF400
07FFFFFC00
01BFFFFE00
000156FF00
000000BF40
000000BF40
000001FF40
1FFFFFFE00
1FFFFFFD00
1FFFFFF400
1FFFFF8000
ENDCHAR
STARTCHAR scircumflex
ENCODING 349
SWIDTH 523 0
DWIDTH 15 0
BBX 13 22 1 0
BITMAP
00040000
002D0000
00BF4000
02FFE000
03E7E000
00808000
00000000
01AAAA00
1FFFFF00
7FFFFF00
BFFFFF00
FF000000
FE000000
BFFFF800
7FFFFF00
1FFFFF80
06AABFC0
00002FC0
AAAABFC0
FFFFFF80
FFFFFE00
FFFFF800
ENDCHAR
STARTCHAR Scedilla
ENCODING 350
SWIDTH 610 0
DWIDTH 17 0
BBX 17 27 0 -7
BITMAP
005AAAA900
02FFFFFE00
0FFFFFFE00
2FFFFFFE00
3FE5555500
7F80000000
7F80000000
7FC0000000
3FFAAA4000
1FFFFFF400
07FFFFFC00
01BFFFFE00
000156FF00
000000BF40
000000BF40
000001FF40
1FFFFFFE00
1FFFFFFD00
1FFFFFF400
1FFFFF8000
0000E00000
0001F40000
0001BD0000
00097D0000
000FFD0000
000BF80000
0000400000
ENDCHAR
STARTCHAR scedilla
ENCODING 351
SWIDTH 523 0
DWIDTH 15 0
BBX 13 22 1 -7
BITMAP
01AAAA00
1FFFFF00
7FFFFF00
BFFFFF00
FF000000
FE000000
BFFFF800
7FFFFF00
1FFFFF80
06AABFC0
00002FC0
AAAABFC0
FFFFFF80
FFFFFE00
FFFFF800
001D0000
002F4000
002FC000
009BD000
01FFC000
01FF4000
00140000
ENDCHAR
STARTCHAR Scaron
ENCODING 352
SWIDTH 610 0
DWIDTH 17 0
BBX 17 26 0 0
BITMAP
0004040000
002E2E0000
002FFE0000
000BF80000
0002E00000
0000400000
005AAAA900
02FFFFFE00
0FFFFFFE00
2FFFFFFE00
3FE5555500
7F80000000
7F80000000
7FC0000000
3FFAAA4000
1FFFFFF400
07FFFFFC00
01BFFFFE00
000156FF00
000000BF40
000000BF40
000001FF40
1FFFFFFE00
1FFFFFFD00
1FFFFFF400
1FFFFF8000
ENDCHAR
STARTCHAR scaron
ENCODING 353
SWIDTH 523 0
DWIDTH 15 0
BBX 13 21 1 0
BITMAP
00404000
02E2E000
02FFF000
00BFC000
002F0000
00040000
01AAAA00
1FFFFF00
7FFFFF00
BFFFFF00
FF000000
FE000000
BFFFF800
7FFFFF00
1FFFFF80
06AABFC0
00002FC0
AAAABFC0
FFFFFF80
FFFFFE00
FFFFF800
ENDCHAR
STARTCHAR Tcommaaccent
ENCODING 354
SWIDTH 578 0
DWIDTH 16 0
BBX 16 27 0 -7
BITMAP
6AAAAAAA
BFFFFFFF
BFFFFFFF
BFFFFFFF
555FF555
000FF000
000FF000
000FF000
000FF000
000FF000
000FF000
000FF000
000FF000
000FF000
000FF000
000FF000
000FF000
000FF000
000FF000
000FF000
00000000
00018000
000BE000
000BF000
0007E000
0001D000
0002C000
ENDCHAR
STARTCHAR tcommaaccent
ENCODING 355
SWIDTH 437 0
DWIDTH 12 0
BBX 12 28 0 -7
BITMAP
055000
0BF000
0BF000
0BF000
0BF000
0BF000
6FFAA9
BFFFFE
BFFFFE
BFFFFE
0BF000
0BF000
0BF000
0BF000
0BF000
0BF400
07F800
03FFA9
01FFFE
007FFE
000BFE
000000
001800
00BE00
00BF00
007F00
001E00
002C00
ENDCHAR
STARTCHAR Tcaron
ENCODING 356
SWIDTH 578 0
DWIDTH 16 0
BBX 16 26 0 0
BITMAP
00141400
007D7D00
007FFD00
001FF400
0007D000
00004000
6AAAAAAA
BFFFFFFF
BFFFFFFF
BFFFFFFF
555FF555
000FF000
000FF000
000FF000
000FF000
000FF000
000FF000
000FF000
000FF000
000FF000
000FF000
000FF000
000FF000
000FF000
000FF000
000FF000
ENDCHAR
STARTCHAR tcaron
ENCODING 357
SWIDTH 570 0
DWIDTH 16 0
BBX 16 21 0 0
BITMAP
05500000
0BF00018
0BF000BE
0BF000BF
0BF0007E
0BF0001E
6FFAA92C
BFFFFE00
BFFFFE00
BFFFFE00
0BF00000
0BF00000
0BF00000
0BF00000
0BF00000
0BF40000
07F80000
03FFA900
01FFFE00
007FFE00
000BFE00
ENDCHAR
STARTCHAR Tbar
ENCODING 358
SWIDTH 578 0
DWIDTH 16 0
BBX 16 20 0 0
BITMAP
6AAAAAAA
BFFFFFFF
BFFFFFFF
BFFFFFFF
555FF555
000FF000
000FF000
000FF000
000FF000
005FF500
00FFFF40
00FFFF40
00FFFF40
00AFFA00
000FF000
000FF000
000FF000
000FF000
000FF000
000FF000
ENDCHAR
STARTCHAR tbar
ENCODING 359
SWIDTH 437 0
DWIDTH 12 0
BBX 12 21 0 0
BITMAP
055000
0BF000
0BF000
0BF000
0BF000
0BF000
6FFAA9
BFFFFE
BFFFFE
BFFFFE
0BF000
5FF540
BFFFC0
BFFFC0
BFFFC0
0BF400
07F800
03FFA9
01FFFE
007FFE
000BFE
ENDCHAR
STARTCHAR Utilde
ENCODING 360
SWIDTH 673 0
DWIDTH 19 0
BBX 17 26 1 0
BITMAP
0004014000
007F8BC000
00FFEFC000
00FEFF8000
00F87F4000
0054040000
6A40006A40
7F8000BF40
7F8000BF40
7F8000BF40
7F8000BF40
7F8000BF40
7F8000BF40
7F8000BF40
7F8000BF40
7F8000BF40
7F8000BF40
7F8000BF40
7F8000BF40
7F8000FF00
3FD002FF00
2FF80BFE00
0FFFFFFC00
07FFFFF400
01FFFF8000
001BF90000
ENDCHAR
STARTCHAR utilde
ENCODING 361
SWIDTH 562 0
DWIDTH 16 0
BBX 14 22 1 -1
BITMAP
00500400
02FC7D00
07FFBD00
0BEFFC00
07C3F800
01404000
6A001A90
BF001FD0
BF001FD0
BF001FD0
BF001FD0
BF001FD0
BF001FD0
BF001FD0
BF001FD0
BF002FD0
7F807FD0
3FEAFFD0
2FFFFFD0
0BFFFAD0
01FFD0D0
00050000
ENDCHAR
STARTCHAR Umacron
ENCODING 362
SWIDTH 673 0
DWIDTH 19 0
BBX 17 24 1 0
BITMAP
003FFE0000
003FFF0000
003FFF0000
0000000000
6A40006A40
7F8000BF40
7F8000BF40
7F8000BF40
7F8000BF40
7F8000BF40
7F8000BF40
7F8000BF40
7F8000BF40
7F8000BF40
7F8000BF40
7F8000BF40
7F8000BF40
7F8000FF00
3FD002FF00
2FF80BFE00
0FFFFFFC00
07FFFFF400
01FFFF8000
001BF90000
ENDCHAR
STARTCHAR umacron
ENCODING 363
SWIDTH 562 0
DWIDTH 16 0
BBX 14 20 1 -1
BITMAP
02FFF400
02FFF400
02FFF400
00000000
6A001A90
BF001FD0
BF001FD0
BF001FD0
BF001FD0
BF001FD0
BF001FD0
BF001FD0
BF001FD0
BF002FD0
7F807FD0
3FEAFFD0
2FFFFFD0
0BFFFAD0
01FFD0D0
00050000
ENDCHAR
STARTCHAR Ubreve
ENCODING 364
SWIDTH 673 0
DWIDTH 19 0
BBX 17 24 1 0
BITMAP
002F3D0000
001FBE0000
000FFD0000
0006E40000
6A40006A40
7F8000BF40
7F8000BF40
7F8000BF40
7F8000BF40
7F8000BF40
7F8000BF40
7F8000BF40
7F8000BF40
7F8000BF40
7F8000BF40
7F8000BF40
7F8000BF40
7F8000FF00
3FD002FF00
2FF80BFE00
0FFFFFFC00
07FFFFF400
01FFFF8000
001BF90000
ENDCHAR
STARTCHAR ubreve
ENCODING 365
SWIDTH 562 0
DWIDTH 16 0
BBX 14 21 1 -1
BITMAP
01F6E000
01FBE000
00BFE000
002F8000
00000000
6A001A90
BF001FD0
BF001FD0
BF001FD0
BF001FD0
BF001FD0
BF001FD0
BF001FD0
BF001FD0
BF002FD0
7F807FD0
3FEAFFD0
2FFFFFD0
0BFFFAD0
01FFD0D0
00050000
ENDCHAR
STARTCHAR Uring
ENCODING 366
SWIDTH 673 0
DWIDTH 19 0
BBX 17 26 1 0
BITMAP
0002A00000
000BF80000
001E3C0000
000E7C0000
000BF80000
0001900000
6A40006A40
7F8000BF40
7F8000BF40
7F8000BF40
7F8000BF40
7F8000BF40
7F8000BF40
7F8000BF40
7F8000BF40
7F8000BF40
7F8000BF40
7F8000BF40
7F8000BF40
7F8000FF00
3FD002FF00
2FF80BFE00
0FFFFFFC00
07FFFFF400
01FFFF8000
001BF90000
ENDCHAR
STARTCHAR uring
ENCODING 367
SWIDTH 562 0
DWIDTH 16 0
BBX 14 22 1 -1
BITMAP
001A4000
007FC000
00B5D000
00B6D000
007FC000
00190000
6A001A90
BF001FD0
BF001FD0
BF001FD0
BF001FD0
BF001FD0
BF001FD0
BF001FD0
BF001FD0
BF002FD0
7F807FD0
3FEAFFD0
2FFFFFD0
0BFFFAD0
01FFD0D0
00050000
ENDCHAR
STARTCHAR Uhungarumlaut
ENCODING 368
SWIDTH 673 0
DWIDTH 19 0
BBX 17 27 1 0
BITMAP
0002400000
0007D1D000
000FF7F800
002FDBF800
007F5FE000
001C1F4000
0000050000
6A40006A40
7F8000BF40
7F8000BF40
7F8000BF40
7F8000BF40
7F8000BF40
7F8000BF40
7F8000BF40
7F8000BF40
7F8000BF40
7F8000BF40
7F8000BF40
7F8000BF40
7F8000FF00
3FD002FF00
2FF80BFE00
0FFFFFFC00
07FFFFF400
01FFFF8000
001BF90000
ENDCHAR
STARTCHAR uhungarumlaut
ENCODING 369
SWIDTH 562 0
DWIDTH 16 0
BBX 14 23 1 -1
BITMAP
00180000
003E0A00
00BF9FC0
01FE7FD0
03F8FF40
00D0F800
00002000
6A001A90
BF001FD0
BF001FD0
BF001FD0
BF001FD0
BF001FD0
BF001FD0
BF001FD0
BF001FD0
BF002FD0
7F807FD0
3FEAFFD0
2FFFFFD0
0BFFFAD0
01FFD0D0
00050000
ENDCHAR
STARTCHAR Uogonek
ENCODING 370
SWIDTH 673 0
DWIDTH 19 0
BBX 17 25 1 -5
BITMAP
6A40006A40
7F8000BF40
7F8000BF40
7F8000BF40
7F8000BF40
7F8000BF40
7F8000BF40
7F8000BF40
7F8000BF40
7F8000BF40
7F8000BF40
7F8000BF40
7F8000BF40
7F8000FF00
3FD002FF00
2FF80BFD00
0FFFFFFC00
07FFFFF400
01FFFF8000
001BF90000
000B800000
001F000000
002FB40000
001FFC0000
0007E00000
ENDCHAR
STARTCHAR uogonek
ENCODING 371
SWIDTH 562 0
DWIDTH 16 0
BBX 16 20 1 -5
BITMAP
6A001A90
BF001FD0
BF001FD0
BF001FD0
BF001FD0
BF001FD0
BF001FD0
BF001FD0
BF001FD0
BF002FD0
7F807FD0
3FEAFFD0
2FFFFFD0
0BFFFAD0
01FFD1D0
000507C0
00000F40
00001FB8
00000FFD
000006E4
ENDCHAR
STARTCHAR Wcircumflex
ENCODING 372
SWIDTH 819 0
DWIDTH 23 0
BBX 21 28 1 -1
BITMAP
000004000000
00002D000000
0000BF800000
0002FFE00000
0002E6E00000
000080800000
000000000000
6A406A406A40
7F807F40BF40
7F807F40BF40
7F807F40BF40
7F807F40BF40
7F807F40BF40
7F807F40BF40
7F807F40BF40
7F807F40BF40
7F807F40BF40
7F807F40BF40
7F807F40BF40
7F807F40BF40
7F807F40BF40
7F80BF40BF40
7FC0FF80FF00
3FFBFFFBFF00
1FFFFFFFFD00
0BFFFFFFF800
01FFD1FFD000
000500140000
ENDCHAR
STARTCHAR wcircumflex
ENCODING 373
SWIDTH 756 0
DWIDTH 21 0
BBX 19 22 1 -1
BITMAP
0000100000
0000780000
0002FE0000
000BFF8000
000BDBC000
0002024000
6A00A901A8
BF01FD02FC
BF01FD02FC
BF01FD02FC
BF01FD02FC
BF01FD02FC
BF01FD02FC
BF01FD02FC
BF01FD02FC
BF01FD02FC
BF42FE03F8
7FEBFFAFF8
3FFFFFFFF0
1FFFFFFFD0
02FF87FE40
0014005000
ENDCHAR
STARTCHAR Ycircumflex
ENCODING 374
SWIDTH 620 0
DWIDTH 17 0
BBX 17 26 0 0
BITMAP
0000400000
0001E00000
000BF80000
002FFE0000
002F6F0000
0008090000
2A40006A40
7F80007F80
7F80007F80
7F80007F80
7F80007F80
7F80007F80
3F80007F40
3FC000BF40
2FE001FF40
1FF807FE00
0FFFBFFD00
07FFFFF400
01FFFFD000
001BFE0000
0007F80000
0007F80000
0007F80000
0007F80000
0007F80000
0007F80000
ENDCHAR
STARTCHAR ycircumflex
ENCODING 375
SWIDTH 562 0
DWIDTH 16 0
BBX 14 27 1 -6
BITMAP
00040000
001E0000
007FC000
01FFF400
01F6F400
00505000
6A001A90
BF001FD0
BF001FD0
BF001FD0
BF001FD0
BF001FD0
BF001FD0
BF001FD0
BF001FD0
BF002FD0
7F807FD0
3FEAFFD0
2FFFFFD0
0BFFFFD0
01FFBFD0
00057FC0
0046FF40
00FFFF00
00FFFC00
00FFE000
00A90000
ENDCHAR
STARTCHAR Ydieresis
ENCODING 376
SWIDTH 620 0
DWIDTH 17 0
BBX 17 25 0 0
BITMAP
0004010000
007E1F8000
007F1F8000
007E1F4000
0000000000
2A40006A40
7F80007F80
7F80007F80
7F80007F80
7F80007F80
7F80007F80
3F80007F40
3FC000BF40
2FE001FF40
1FF807FE00
0FFFBFFD00
07FFFFF400
01FFFFD000
001BFE0000
0007F80000
0007F80000
0007F80000
0007F80000
0007F80000
0007F80000
ENDCHAR
STARTCHAR Zacute
ENCODING 377
SWIDTH 586 0
DWIDTH 16 0
BBX 16 27 0 0
BITMAP
00000100
00000F00
00007F80
0001FF80
0002FD00
0000E000
00000000
6AAAAAA9
7FFFFFFD
7FFFFFF8
7FFFFFF4
15557FE0
0000BFC0
0000FF80
0002FF00
0007FE00
000BFC00
001FF400
002FF000
007FD000
00FFC000
01FF4000
03FE0000
07FFFFFE
0FFFFFFE
2FFFFFFE
3FFFFFFE
ENDCHAR
STARTCHAR zacute
ENCODING 378
SWIDTH 481 0
DWIDTH 14 0
BBX 13 22 0 0
BITMAP
00001000
00007800
0002FD00
000BFD00
000FE400
00074000
00000000
6AAAAA40
7FFFFF40
7FFFFE00
7FFFFC00
000BF800
000FF000
002FD000
003F8000
00BF4000
01FE0000
02FC0000
07FEAA80
0FFFFFC0
2FFFFFC0
3FFFFFC0
ENDCHAR
STARTCHAR Zdotaccent
ENCODING 379
SWIDTH 586 0
DWIDTH 16 0
BBX 16 25 0 0
BITMAP
00014000
0007E000
0007F000
0002D000
00000000
6AAAAAA9
7FFFFFFD
7FFFFFF8
7FFFFFF4
15557FE0
0000BFC0
0000FF80
0002FF00
0007FE00
000BFC00
001FF400
002FF000
007FD000
00FFC000
01FF4000
03FE0000
07FFFFFE
0FFFFFFE
2FFFFFFE
3FFFFFFE
ENDCHAR
STARTCHAR zdotaccent
ENCODING 380
SWIDTH 481 0
DWIDTH 14 0
BBX 13 20 0 0
BITMAP
00050000
002F4000
003F4000
001E0000
00000000
6AAAAA40
7FFFFF40
7FFFFE00
7FFFFC00
000BF800
000FF000
002FD000
003F8000
00BF4000
01FE0000
02FC0000
07FEAA80
0FFFFFC0
2FFFFFC0
3FFFFFC0
ENDCHAR
STARTCHAR Zcaron
ENCODING 381
SWIDTH 586 0
DWIDTH 16 0
BBX 16 26 0 0
BITMAP
00140400
003D3D00
007FFE00
001FF800
0003E000
00004000
6AAAAAA9
7FFFFFFD
7FFFFFF8
7FFFFFF4
15557FE0
0000BFC0
0000FF80
0002FF00
0007FE00
000BFC00
001FF400
002FF000
007FD000
00FFC000
01FF4000
03FE0000
07FFFFFE
0FFFFFFE
2FFFFFFE
3FFFFFFE
ENDCHAR
STARTCHAR zcaron
ENCODING 382
SWIDTH 481 0
DWIDTH 14 0
BBX 13 21 0 0
BITMAP
00404000
01F1E000
02FFF400
00BFD000
001F0000
00040000
6AAAAA40
7FFFFF40
7FFFFE00
7FFFFC00
000BF800
000FF000
002FD000
003F8000
00BF4000
01FE0000
02FC0000
07FEAA80
0FFFFFC0
2FFFFFC0
3FFFFFC0
ENDCHAR
STARTCHAR AEacute
ENCODING 508
SWIDTH 988 0
DWIDTH 28 0
BBX 26 27 1 0
BITMAP
00000000400000
00000001E00000
00000007F40000
0000001FF80000
0000003FD00000
0000001E000000
00000000000000
0006AAAAAAAA90
00BFFFFFFFFFE0
02FFFFFFFFFFE0
0BFFFFFFFFFFE0
1FFD55BF555550
3FE000BF400000
7FC000BF400000
7F8000BF400000
7F8000BFAAA800
7F8000BFFFF800
7F8000BFFFF800
7F8000BFFFF800
7FEAAAFF555000
7FFFFFFF400000
7FFFFFFF400000
7FFFFFFF400000
7F8000BFFFFFE0
7F8000BFFFFFE0
7F8000BFFFFFE0
7F8000BFFFFFE0
ENDCHAR
STARTCHAR aeacute
ENCODING 509
SWIDTH 976 0
DWIDTH 27 0
BBX 27 23 0 -1
BITMAP
00000000100000
00000000B40000
00000002FC0000
0000000FFD0000
0000001FE00000
0000000A400000
00000000004000
006FF9051FFE40
02FFFF5EFFFFD0
0BFFFFFFFFFFF4
1FFEBFFFFEAFF4
2FE00BFFF42FE0
3FC002FFE0BF80
7F8001FFD1FF00
7F4001FFC3FD00
7F8001FFCBF400
3FC002FFFFD040
3FE00BFFFF82D0
1FFEAFFFFFAFF4
0BFFFFFFFFFFF4
02FFFF9EFFFFE0
007FF90A2FFE40
00014000005000
ENDCHAR
STARTCHAR Oslashacute
ENCODING 510
SWIDTH 777 0
DWIDTH 22 0
BBX 21 28 0 -1
BITMAP
000000100000
000000B40000
000002FC0000
00000BFD0000
00001FE00000
00000B400000
000000000000
0001AA90A900
001BFFFFFC00
00BFFFFFF400
02FFFFFFF400
07FF907FFD00
0FF800BFFE00
1FF001FEFF40
3FD003F8BF80
3FC00BF03FC0
7F801FD03FC0
7F807F803FC0
3F80FE003FC0
3FC2FC007F80
2FE7F400BF40
1FFFE002FF00
0BFFC00BFE00
03FFEABFF800
01FFFFFFF000
03FFFFFF8000
0BF6FFF90000
000015400000
ENDCHAR
STARTCHAR oslashacute
ENCODING 511
SWIDTH 579 0
DWIDTH 16 0
BBX 16 24 0 -1
BITMAP
00000400
00001E00
00007F80
0001FF80
0002FD00
0000E000
00000000
00000000
006FFAA9
02FFFFF8
0BFFFFF0
1FFEBFF8
2FE07FFC
3FC1FFFD
7F83F9FD
7F4BF1FE
7F9FD1FD
3FFF82FD
2FFF07FC
1FFEAFF8
0BFFFFE0
1FFFFF80
3FEFFD00
00014000
ENDCHAR
STARTCHAR dotlessj
ENCODING 567
SWIDTH 237 0
DWIDTH 7 0
BBX 10 21 -4 -6
BITMAP
001A90
002FD0
002FD0
002FD0
002FD0
002FD0
002FD0
002FD0
002FD0
002FD0
002FD0
002FD0
002FD0
002FD0
003FC0
007F80
46FF40
FFFE00
FFF800
FFE000
A90000
ENDCHAR
STARTCHAR circumflex
ENCODING 710
SWIDTH 267 0
DWIDTH 7 0
BBX 7 6 0 14
BITMAP
0100
0780
1FE0
7FFC
BDBC
2424
ENDCHAR
STARTCHAR caron
ENCODING 711
SWIDTH 267 0
DWIDTH 7 0
BBX 8 6 0 14
BITMAP
1010
7C78
BFFD
2FF4
07C0
0100
ENDCHAR
STARTCHAR breve
ENCODING 728
SWIDTH 220 0
DWIDTH 6 0
BBX 6 4 0 15
BITMAP
F9F0
FAF0
BFE0
1B80
ENDCHAR
STARTCHAR dotaccent
ENCODING 729
SWIDTH 125 0
DWIDTH 4 0
BBX 4 4 0 15
BITMAP
14
BD
FD
78
ENDCHAR
STARTCHAR ring
ENCODING 730
SWIDTH 192 0
DWIDTH 5 0
BBX 6 6 0 14
BITMAP
1A00
BFC0
F2D0
F6D0
7F80
1900
ENDCHAR
STARTCHAR ogonek
ENCODING 731
SWIDTH 212 0
DWIDTH 6 0
BBX 6 6 0 -5
BITMAP
0A00
3D00
B800
FE80
BFE0
2F80
ENDCHAR
STARTCHAR tilde
ENCODING 732
SWIDTH 321 0
DWIDTH 9 0
BBX 9 6 0 14
BITMAP
040140
7F8BC0
FFEFC0
FEFF80
F87F40
540400
ENDCHAR
STARTCHAR hungarumlaut
ENCODING 733
SWIDTH 384 0
DWIDTH 11 0
BBX 11 7 0 14
BITMAP
020000
0BC2C0
2FE7F4
7F9FF4
BE2FD0
282F00
000800
ENDCHAR
STARTCHAR uni0312
ENCODING 786
SWIDTH 192 0
DWIDTH 5 0
BBX 4 6 1 15
BITMAP
20
74
F4
FD
FD
BC
ENDCHAR
STARTCHAR uni0315
ENCODING 789
SWIDTH 132 0
DWIDTH 4 0
BBX 4 6 0 14
BITMAP
24
BE
FE
7E
2D
28
ENDCHAR
STARTCHAR uni0326
ENCODING 806
SWIDTH 193 0
DWIDTH 5 0
BBX 4 6 1 -7
BITMAP
64
FD
FE
BD
2C
38
ENDCHAR
STARTCHAR pi
ENCODING 960
SWIDTH 555 0
DWIDTH 16 0
BBX 15 15 0 0
BITMAP
6AAAAAA8
BFFFFFFC
BFFFFFFC
BFFFFFFC
07F83F80
07F83F80
07F83F80
07F83F80
07F83F80
07F83F80
07F83F80
07F83F80
07F83F80
07F83F80
07F83F80
ENDCHAR
STARTCHAR Wgrave
ENCODING 7808
SWIDTH 819 0
DWIDTH 23 0
BBX 21 28 1 -1
BITMAP
000100000000
000780000000
001FE0000000
001FF8000000
0002FD000000
000078000000
000000000000
6A406A406A40
7F807F40BF40
7F807F40BF40
7F807F40BF40
7F807F40BF40
7F807F40BF40
7F807F40BF40
7F807F40BF40
7F807F40BF40
7F807F40BF40
7F807F40BF40
7F807F40BF40
7F807F40BF40
7F807F40BF40
7F80BF40BF40
7FC0FF80FF00
3FFBFFFBFF00
1FFFFFFFFD00
0BFFFFFFF800
01FFD1FFD000
000500140000
ENDCHAR
STARTCHAR wgrave
ENCODING 7809
SWIDTH 756 0
DWIDTH 21 0
BBX 19 23 1 -1
BITMAP
0004000000
002D000000
007F800000
00BFE00000
001BF00000
0001D00000
0000000000
6A00A901A8
BF01FD02FC
BF01FD02FC
BF01FD02FC
BF01FD02FC
BF01FD02FC
BF01FD02FC
BF01FD02FC
BF01FD02FC
BF01FD02FC
BF42FE03F8
7FEBFFAFF8
3FFFFFFFF0
1FFFFFFFD0
02FF87FE40
0014005000
ENDCHAR
STARTCHAR Wacute
ENCODING 7810
SWIDTH 819 0
DWIDTH 23 0
BBX 21 28 1 -1
BITMAP
000000100000
000000B40000
000002FC0000
00000FFD0000
00001FE00000
00000A400000
000000000000
6A406A406A40
7F807F40BF40
7F807F40BF40
7F807F40BF40
7F807F40BF40
7F807F40BF40
7F807F40BF40
7F807F40BF40
7F807F40BF40
7F807F40BF40
7F807F40BF40
7F807F40BF40
7F807F40BF40
7F807F40BF40
7F80BF40BF40
7FC0FF80FF00
3FFBFFFBFF00
1FFFFFFFFD00
0BFFFFFFF800
01FFD1FFD000
000500140000
ENDCHAR
STARTCHAR wacute
ENCODING 7811
SWIDTH 756 0
DWIDTH 21 0
BBX 19 23 1 -1
BITMAP
0000004000
000001E000
000007F400
00002FF800
00003FD000
00001D0000
0000000000
6A00A901A8
BF01FD02FC
BF01FD02FC
BF01FD02FC
BF01FD02FC
BF01FD02FC
BF01FD02FC
BF01FD02FC
BF01FD02FC
BF01FD02FC
BF42FE03F8
7FEBFFAFF8
3FFFFFFFF0
1FFFFFFFD0
02FF87FE40
0014005000
ENDCHAR
STARTCHAR Wdieresis
ENCODING 7812
SWIDTH 819 0
DWIDTH 23 0
BBX 21 26 1 -1
BITMAP
000140000000
0007D1F40000
000BE2F80000
0007D1F40000
000000000000
6A406A406A40
7F807F40BF40
7F807F40BF40
7F807F40BF40
7F807F40BF40
7F807F40BF40
7F807F40BF40
7F807F40BF40
7F807F40BF40
7F807F40BF40
7F807F40BF40
7F807F40BF40
7F807F40BF40
7F807F40BF40
7F80BF40BF40
7FC0FF80FF00
3FFBFFFBFF00
1FFFFFFFFD00
0BFFFFFFF800
01FFD1FFD000
000500140000
ENDCHAR
STARTCHAR wdieresis
ENCODING 7813
SWIDTH 756 0
DWIDTH 21 0
BBX 19 21 1 -1
BITMAP
0001000000
001F87D000
002FCBE000
001F47D000
0000000000
6A00A901A8
BF01FD02FC
BF01FD02FC
BF01FD02FC
BF01FD02FC
BF01FD02FC
BF01FD02FC
BF01FD02FC
BF01FD02FC
BF01FD02FC
BF42FE03F8
7FEBFFAFF8
3FFFFFFFF0
1FFFFFFFD0
02FF87FE40
0014005000
ENDCHAR
STARTCHAR Ygrave
ENCODING 7922
SWIDTH 620 0
DWIDTH 17 0
BBX 17 27 0 0
BITMAP
0010000000
00B4000000
02FD000000
02FF400000
007FC00000
000B400000
0000000000
2A40006A40
7F80007F80
7F80007F80
7F80007F80
7F80007F80
7F80007F80
3F80007F40
3FC000BF40
2FE001FF40
1FF807FE00
0FFFBFFD00
07FFFFF400
01FFFFD000
001BFE0000
0007F80000
0007F80000
0007F80000
0007F80000
0007F80000
0007F80000
ENDCHAR
STARTCHAR ygrave
ENCODING 7923
SWIDTH 562 0
DWIDTH 16 0
BBX 14 28 1 -6
BITMAP
01000000
0B400000
1FD00000
2FF40000
07FC0000
00740000
00000000
6A001A90
BF001FD0
BF001FD0
BF001FD0
BF001FD0
BF001FD0
BF001FD0
BF001FD0
BF001FD0
BF002FD0
7F807FD0
3FEAFFD0
2FFFFFD0
0BFFFFD0
01FFBFD0
00057FC0
0046FF40
00FFFF00
00FFFC00
00FFE000
00A90000
ENDCHAR
STARTCHAR endash
ENCODING 8211
SWIDTH 418 0
DWIDTH 12 0
BBX 9 4 1 8
BITMAP
6AAA80
7FFFC0
7FFFC0
7FFFC0
ENDCHAR
STARTCHAR emdash
ENCODING 8212
SWIDTH 719 0
DWIDTH 20 0
BBX 18 4 1 8
BITMAP
6AAAAAAA90
7FFFFFFFD0
7FFFFFFFD0
7FFFFFFFD0
ENDCHAR
STARTCHAR quoteleft
ENCODING 8216
SWIDTH 246 0
DWIDTH 7 0
BBX 5 8 1 12
BITMAP
0400
2E00
7C00
BE00
BF80
BF80
7F40
1900
ENDCHAR
STARTCHAR quoteright
ENCODING 8217
SWIDTH 245 0
DWIDTH 7 0
BBX 5 8 1 12
BITMAP
1900
BF40
FF80
BF80
7F40
1F00
2E00
0400
ENDCHAR
STARTCHAR quotesinglbase
ENCODING 8218
SWIDTH 264 0
DWIDTH 7 0
BBX 5 8 1 -4
BITMAP
1A00
7F80
BFC0
7FC0
2F80
0F40
1E00
0400
ENDCHAR
STARTCHAR quotedblleft
ENCODING 8220
SWIDTH 445 0
DWIDTH 12 0
BBX 11 8 1 12
BITMAP
040140
2E03C0
7C0B80
BE0FD0
BF8FF4
BF9FF4
7F4FF0
190290
ENDCHAR
STARTCHAR quotedblright
ENCODING 8221
SWIDTH 444 0
DWIDTH 12 0
BBX 11 8 1 12
BITMAP
190280
BF4FF0
FF9FF4
BF9FF4
7F47F0
1F02E0
2E03D0
040140
ENDCHAR
STARTCHAR quotedblbase
ENCODING 8222
SWIDTH 463 0
DWIDTH 13 0
BBX 11 8 1 -4
BITMAP
1A0290
7F8BF4
BFCFF8
7FCFF8
2F86F4
0F41F0
1E02D0
040040
ENDCHAR
STARTCHAR dagger
ENCODING 8224
SWIDTH 434 0
DWIDTH 12 0
BBX 11 26 1 -3
BITMAP
015400
03FC00
03FC00
03FC00
03FC00
57FD50
FFFFF4
FFFFF4
FFFFF4
57FD50
03FC00
03FC00
03FC00
03FC00
03FC00
03FC00
03FC00
03FC00
03FC00
03FC00
03FC00
03FC00
03FC00
03FC00
03FC00
02A800
ENDCHAR
STARTCHAR daggerdbl
ENCODING 8225
SWIDTH 452 0
DWIDTH 13 0
BBX 11 26 1 -3
BITMAP
015400
02FD00
02FD00
02FD00
02FD00
56FE54
FFFFF8
FFFFF8
FFFFF8
56FE54
02FD00
02FD00
02FD00
02FD00
02FD00
02FD00
16FD50
FFFFF8
FFFFF8
FFFFF8
6BFEA4
02FD00
02FD00
02FD00
02FD00
02A900
ENDCHAR
STARTCHAR bullet
ENCODING 8226
SWIDTH 354 0
DWIDTH 10 0
BBX 6 6 2 7
BITMAP
2F80
BFD0
FFE0
BFE0
7FD0
1A40
ENDCHAR
STARTCHAR ellipsis
ENCODING 8230
SWIDTH 789 0
DWIDTH 22 0
BBX 20 5 1 -1
BITMAP
1A00290064
7F80FF02FD
BFC1FF43FE
7F80FF02FE
2E007D00B8
ENDCHAR
STARTCHAR perthousand
ENCODING 8240
SWIDTH 998 0
DWIDTH 28 0
BBX 26 21 1 -1
BITMAP
0BE00069000000
3FFC00FC000000
BFBE02F4000000
BC3F03F0000000
F82F0BD0000000
F82F1F80000000
BC3F2F40000000
BEBE7E00000000
3FFCBC00000000
0BE5F800000000
0003F1A4006900
0007D7FF02FF80
000FCFFF87FFD0
002F5F4BCBD3E0
003F2F07DF82F0
00BD2F07DF82F0
01F82F07CBC2F0
02F41F9FCBE7E0
07E00FFF87FFD0
0FC007FE01FF40
00000050001400
ENDCHAR
STARTCHAR guilsinglleft
ENCODING 8249
SWIDTH 403 0
DWIDTH 11 0
BBX 9 14 1 0
BITMAP
000D00
003F80
00FF80
03FE00
0BF800
2FE000
BF8000
BFD000
2FF400
0BFD00
02FF40
00BF80
002F00
000400
ENDCHAR
STARTCHAR guilsinglright
ENCODING 8250
SWIDTH 402 0
DWIDTH 11 0
BBX 10 14 1 0
BITMAP
1D0000
7F4000
7FD000
1FF400
0BFD00
02FF40
00BFD0
00BFD0
02FF00
0FFC00
7FE000
BF8000
2E0000
080000
ENDCHAR
STARTCHAR fraction
ENCODING 8260
SWIDTH 477 0
DWIDTH 13 0
BBX 14 20 0 0
BITMAP
00000690
00000FC0
00002F40
00003E00
0000BD00
0001F800
0002F400
0007E000
000FC000
001F8000
003F0000
00BD0000
00FC0000
02F40000
07E00000
0BD00000
1F800000
2F000000
7E000000
FC000000
ENDCHAR
STARTCHAR Euro
ENCODING 8364
SWIDTH 806 0
DWIDTH 23 0
BBX 20 21 1 -1
BITMAP
000006BA40
00007FFFF8
0002FFFFFF
000BFFFFFE
002FFE41BD
003FE00018
1AFFEA8000
2FFFFFC000
2FFFFF8000
2AFFAA4000
01FE000000
7FFFFF0000
BFFFFE0000
FFFFFE0000
55BFE50000
003FF4002C
001FFFAAFD
0007FFFFFF
0001FFFFFE
00001FFFE4
0000005500
ENDCHAR
STARTCHAR trademark
ENCODING 8482
SWIDTH 606 0
DWIDTH 17 0
BBX 15 8 1 12
BITMAP
6AA4A690
6FA6EFF0
07028D74
07038D74
07038D74
07038D74
07038D74
01014410
ENDCHAR
STARTCHAR partialdiff
ENCODING 8706
SWIDTH 609 0
DWIDTH 17 0
BBX 15 23 1 -1
BITMAP
00155000
001FF000
000BF800
0007FD00
0002FE00
0000FF40
00007F80
006FFFC0
07FFFFE0
1FFFFFF0
3FFABFF4
7FD01FF4
BF4007F8
FF0003F8
FE0003FC
FF0003FC
BF4007F8
7FD01FF4
3FF9BFF0
1FFFFFD0
07FFFF40
00BFF800
00054000
ENDCHAR
STARTCHAR product
ENCODING 8719
SWIDTH 632 0
DWIDTH 18 0
BBX 16 20 1 0
BITMAP
AAAAAAA9
FFFFFFFE
FFFFFFFE
FFFFFFFE
5BF96FD5
07F42FD0
07F42FD0
07F42FD0
07F42FD0
07F42FD0
07F42FD0
07F42FD0
07F42FD0
07F42FD0
07F42FD0
07F42FD0
07F42FD0
07F42FD0
07F42FD0
07F42FD0
ENDCHAR
STARTCHAR minus
ENCODING 8722
SWIDTH 543 0
DWIDTH 15 0
BBX 12 4 2 8
BITMAP
AAAAA9
FFFFFD
FFFFFD
FFFFFD
ENDCHAR
STARTCHAR infinity
ENCODING 8734
SWIDTH 771 0
DWIDTH 22 0
BBX 20 13 1 3
BITMAP
0064005500
07FF87FF80
1FFFEFFFF0
3FFFFFFFF8
7F9BFF9BFC
BF02FE02FD
BF00FE01FD
BF00FF01FD
BF81FF82FD
7FFFFFFFFC
2FFFFFFFF4
0BFFDBFFD0
01BE01BE40
ENDCHAR
STARTCHAR approxequal
ENCODING 8776
SWIDTH 476 0
DWIDTH 13 0
BBX 11 12 1 4
BITMAP
014050
1FE1F8
3FFAF8
7FFFF4
7E2FF0
2A0680
014050
1FE1F8
3FFAF8
7FFFF4
7E2FF0
2A0680
ENDCHAR
STARTCHAR notequal
ENCODING 8800
SWIDTH 512 0
DWIDTH 14 0
BBX 12 18 1 1
BITMAP
000054
0002FC
0003F8
0007F0
6AABF9
BFFFFF
BFFFFF
BFFFFF
007F40
00BF00
BFFFFF
BFFFFF
BFFFFF
6BFAAA
07F000
0FE000
1FD000
2F8000
ENDCHAR
STARTCHAR fi
ENCODING 64257
SWIDTH 650 0
DWIDTH 18 0
BBX 18 22 0 0
BITMAP
0006BE0000
002FFE2F40
00FFFE7FD0
02FFFEBFD0
07FD007FC0
07F4001A40
0BF4000000
6FFAAAAA80
7FFFFFFF80
7FFFFFFF80
7FFFFFFF80
0BF4003F80
0BF4003F80
0BF4003F80
0BF4003F80
0BF4003F80
0BF4003F80
0BF4003F80
0BF4003F80
0BF4003F80
0BF4003F80
0BF4003F80
ENDCHAR
STARTCHAR fl
ENCODING 64258
SWIDTH 631 0
DWIDTH 18 0
BBX 17 22 0 0
BITMAP
0006BFFF40
002FFFFF40
00FFFFFF40
02FFFFFF40
07FD007F40
07F4007F40
0BF4007F40
6FFAA47F40
7FFFF87F40
7FFFF87F40
7FFFF87F40
0BF4007F40
0BF4007F40
0BF4007F40
0BF4007F40
0BF4007F40
0BF4007F40
0BF4007F40
0BF4007F40
0BF4007F40
0BF4007F40
0BF4007F40
ENDCHAR
STARTCHAR .notdef
ENCODING -1
SWIDTH 279 0
DWIDTH 8 0
BBX 1 1 0 0
BITMAP
00
ENDCHAR
STARTCHAR .null
ENCODING -1
SWIDTH 0 0
DWIDTH 0 0
BBX 1 1 0 0
BITMAP
00
ENDCHAR
STARTCHAR nonmarkingreturn
ENCODING -1
SWIDTH 279 0
DWIDTH 8 0
BBX 1 1 0 0
BITMAP
00
ENDCHAR
ENDFONT
